<?xml version="1.0" encoding="utf-8"?>
<!-- Generator: Adobe Illustrator 22.1.0, SVG Export Plug-In . SVG Version: 6.00 Build 0)  -->
<svg version="1.1" id="Camada_1" xmlns="http://www.w3.org/2000/svg" xmlns:xlink="http://www.w3.org/1999/xlink" x="0px" y="0px"
	 width="981.1px" height="567px" viewBox="0 0 981.1 567" style="enable-background:new 0 0 981.1 567;" xml:space="preserve">
<style type="text/css">
	.st0{fill:none;stroke:#B83F3B;stroke-width:3;stroke-miterlimit:10;}
	.st1{fill:#233D48;}
	.st2{fill:url(#SVGID_1_);}
	.st3{fill:none;}
	.st4{font-family:'ArialMT';}
	.st5{font-size:21px;}
</style>
<path class="st0" d="M561.1,116.9H427.2c-17.6,0-33.9,9.4-42.7,24.7l-66.9,115.9c-8.8,15.3-8.8,34.1,0,49.3l66.9,115.9
	c8.8,15.3,25.1,24.7,42.7,24.7h133.9c17.6,0,33.9-9.4,42.7-24.7l66.9-115.9c8.8-15.3,8.8-34.1,0-49.3l-66.9-115.9
	C595,126.3,578.7,116.9,561.1,116.9z"/>
<g>
	<g>
		<path class="st1" d="M575.5,312.9c-1.1-0.8-1.4-2.3-0.6-3.5c0.8-1.1,2.3-1.4,3.5-0.6c0.1,0,0.1,0.1,0.2,0.1
			c-0.1-0.3-0.1-0.6-0.2-0.9c-0.6-0.6-0.8-1.6-0.6-2.4c-0.1-0.3-0.2-0.6-0.2-0.9c-0.8,1-2.3,1.2-3.3,0.4c-1.1-0.8-1.4-2.3-0.6-3.5
			c0.6-0.8,1.5-1.1,2.4-1c-0.4-0.8-0.9-1.8-1.5-2.8c-0.5,0-1.1-0.1-1.6-0.4c-1-0.7-1.3-1.9-0.9-2.9c-0.1-0.2-0.3-0.4-0.5-0.5
			c-0.8,0.8-2.2,1-3.2,0.3c-1.1-0.8-1.4-2.3-0.6-3.5c0.1-0.1,0.1-0.2,0.2-0.3c-0.2-0.1-0.3-0.3-0.5-0.4c-0.1,0.1-0.1,0.2-0.2,0.3
			c-0.8,1.1-2.3,1.4-3.5,0.6c-1.1-0.8-1.4-2.3-0.6-3.5c0-0.1,0.1-0.1,0.1-0.2c-0.2-0.1-0.3-0.2-0.5-0.3c0,0,0,0.1-0.1,0.1
			c-0.8,1.1-2.3,1.4-3.5,0.6c-0.9-0.6-1.2-1.7-1-2.7c-0.3-0.1-0.6-0.2-1-0.3c-0.8,0.4-1.8,0.4-2.6-0.1c-0.3-0.2-0.5-0.4-0.7-0.7
			c-1-0.2-2.1-0.4-3.2-0.6c0.2,0.7,0.1,1.4-0.4,2c-0.8,1.1-2.3,1.4-3.5,0.6c-1-0.7-1.3-2-0.8-3.1c-0.3,0-0.6,0-0.9,0
			c-0.8,0.5-1.8,0.5-2.6,0.1c-0.3,0-0.6,0-1,0.1c0.2,0.1,0.3,0.2,0.5,0.3c1.1,0.8,1.4,2.3,0.6,3.5c-0.8,1.1-2.3,1.4-3.5,0.6
			c-1.1-0.8-1.4-2.3-0.6-3.5c0.2-0.2,0.3-0.4,0.5-0.5c-0.3,0.1-0.6,0.1-1,0.2l0,0c-0.7,1-2.1,1.3-3.2,0.7c-0.2,0.1-0.5,0.1-0.7,0.2
			c0.1,0,0.1,0.1,0.2,0.1c1.1,0.8,1.4,2.3,0.6,3.5c-0.8,1.1-2.3,1.4-3.5,0.6c-0.9-0.6-1.3-1.8-0.9-2.8c-1,0.4-2,0.9-3,1.4
			c0.2,0.7,0.1,1.5-0.3,2.2c-0.2,0.4-0.6,0.6-0.9,0.8c0.5-0.2,0.9-0.3,1.4-0.4l0,0c0.8-1.1,2.3-1.4,3.5-0.6l0,0
			c1.3,0,2.5,0.1,3.7,0.5c0-0.5,0.2-0.9,0.4-1.3c0.8-1.1,2.3-1.4,3.5-0.6c1.1,0.8,1.4,2.3,0.6,3.5c-0.3,0.4-0.6,0.6-1,0.8
			c0.3,0.3,0.7,0.7,1,1.1c0-0.5,0.1-1.1,0.4-1.6c0.8-1.1,2.3-1.4,3.5-0.6c1.1,0.8,1.4,2.3,0.6,3.5c-0.7,0.9-1.9,1.3-2.9,0.9
			c0.6,0.9,1,1.9,1.4,3c0.7-0.3,1.6-0.2,2.3,0.3c1.1,0.8,1.4,2.3,0.6,3.5c-0.6,0.9-1.6,1.2-2.6,1c-0.1,0.4-0.2,0.8-0.3,1.3
			c0.3,0.7,0.2,1.6-0.3,2.3c-0.3,0.4-0.7,0.7-1.1,0.9c-0.3,0.5-0.6,1-1,1.5l-0.6,0.5c0,0.6-0.1,1.1-0.4,1.6c-0.6,0.9-1.7,1.2-2.7,1
			l-0.6,0.5c0.7,0.8,0.8,2.1,0.1,3c-0.8,1.1-2.3,1.4-3.5,0.6c-0.2-0.1-0.3-0.3-0.5-0.4l-0.6,0.5c0.3,0.1,0.5,0.2,0.8,0.3
			c1.1,0.8,1.4,2.3,0.6,3.5c-0.8,1.1-2.3,1.4-3.5,0.6c-0.6-0.4-1-1.1-1-1.8l-6,5c0.2,0.7,0.1,1.4-0.4,2c-0.7,1-2,1.3-3,0.9l-0.5,0.4
			c0.9,0.8,1.1,2.2,0.4,3.2c-0.8,1.1-2.3,1.4-3.5,0.6c-0.3-0.2-0.5-0.4-0.7-0.7l-0.8,0.7c0.4,0,0.8,0.2,1.2,0.4
			c1.1,0.8,1.4,2.3,0.6,3.5s-2.3,1.4-3.5,0.6c-0.7-0.5-1.1-1.4-1-2.2l-2.9,2.5c-0.1,0.2-0.2,0.3-0.3,0.5c-0.4,0.5-0.9,0.8-1.5,1
			l-1.4,1.2c0.3,0.7,0.2,1.6-0.3,2.3c-0.8,1.1-2.2,1.4-3.3,0.7l-0.5,0.4c1.1,0.8,1.4,2.3,0.6,3.4s-2.3,1.4-3.5,0.6
			c-0.4-0.3-0.6-0.6-0.8-1l-1.2,1c0.6-0.1,1.2,0.1,1.7,0.4c1.1,0.8,1.4,2.3,0.6,3.5c-0.8,1.1-2.3,1.4-3.5,0.6
			c-0.9-0.6-1.2-1.7-1-2.7l-2.9,2.4c-0.1,0.4-0.2,0.7-0.4,1c-0.5,0.7-1.3,1.1-2,1.1l-1,0.8c0.4,0.8,0.4,1.8-0.1,2.6
			c-0.6,0.8-1.5,1.2-2.4,1c-0.4,1.1-0.5,2.3,0.1,3.4c0.8-0.8,2.1-0.9,3.1-0.2c0.7,0.5,1.1,1.3,1,2.2c0.8-0.1,1.7-0.5,2.7-1.2
			c-0.1-0.6,0.1-1.2,0.4-1.7c0.6-0.9,1.7-1.2,2.7-1l0.6-0.5c-0.7-0.8-0.8-2.1-0.2-3.1c0.8-1.1,2.3-1.4,3.5-0.6
			c0.2,0.1,0.4,0.3,0.5,0.5l0.7-0.6c-0.3-0.1-0.6-0.2-0.9-0.4c-1.1-0.8-1.4-2.3-0.6-3.5c0.8-1.1,2.3-1.4,3.5-0.6
			c0.7,0.5,1,1.2,1,1.9l3.1-2.6v-0.1c0.3-0.4,0.7-0.7,1.1-0.9l0.4-0.3c0,0,0.6-0.5,1.4-0.9c-0.3-0.8-0.3-1.7,0.2-2.4
			c0.8-1.1,2.3-1.4,3.5-0.6c1,0.7,1.3,2,0.8,3.1c0.2,0.1,0.3,0.2,0.5,0.4c0.8-0.9,2.2-1,3.2-0.3c1.1,0.8,1.4,2.3,0.6,3.5
			c-0.5,0.6-1.2,1-1.9,1c-0.1,0.6-0.3,1.2-0.8,1.8c0,0.6-0.1,1.1-0.4,1.6c-0.6,0.9-1.6,1.2-2.6,1l-0.7,0.6c0.7,0.8,0.8,2.1,0.1,3
			c-0.8,1.1-2.3,1.4-3.5,0.6c-0.2-0.1-0.3-0.3-0.5-0.5l-0.7,0.5c0.3,0.1,0.6,0.2,0.8,0.4c1.1,0.8,1.4,2.3,0.6,3.5
			c-0.8,1.1-2.3,1.4-3.5,0.6c-0.7-0.5-1-1.2-1-1.9l-0.9,0.8c0,0-0.5,0.6-0.9,1.5c0.8-0.4,1.8-0.4,2.6,0.1c1.1,0.8,1.4,2.3,0.6,3.5
			c-0.8,1.1-2.3,1.4-3.5,0.6c-0.1-0.1-0.2-0.2-0.3-0.2c0.1,0.5,0.3,0.9,0.6,1.4l0,0c0.1,0.2,0.3,0.4,0.5,0.7c0,0,1.2,0.8,3.1,0.8
			c-0.6-0.8-0.7-2-0.1-2.9c0.8-1.1,2.3-1.4,3.5-0.6c0.6,0.4,0.9,1,1,1.6l6-5.1c-0.1-0.6,0.1-1.2,0.4-1.7c0.6-0.9,1.7-1.2,2.7-1
			l0.6-0.5c-0.7-0.8-0.8-2.1-0.2-3c0.8-1.1,2.3-1.4,3.5-0.6c0.2,0.1,0.3,0.3,0.5,0.4l0.6-0.5c-0.3-0.1-0.5-0.2-0.8-0.4
			c-1.1-0.8-1.4-2.3-0.6-3.5c0.8-1.1,2.3-1.4,3.5-0.6c0.8,0.5,1.1,1.4,1,2.3c0.9-0.4,2-0.6,3.1-0.3c-0.5-0.8-0.5-1.9,0.1-2.8
			c0.8-1.1,2.3-1.4,3.5-0.6c1.1,0.8,1.4,2.3,0.6,3.5c-0.6,0.8-1.5,1.2-2.4,1c0.1,0.1,0.1,0.1,0.2,0.2c0,0,0.8,1.1,1.1,2.6
			c0.6-0.1,1.3,0,1.9,0.4c1.1,0.8,1.4,2.3,0.6,3.5c-0.8,1.1-2.3,1.4-3.5,0.6c-0.1-0.1-0.2-0.2-0.3-0.3c-0.1,0.2-0.3,0.3-0.5,0.5
			c0.2,0.1,0.4,0.2,0.5,0.3c1.1,0.8,1.4,2.3,0.6,3.5c-0.8,1.1-2.3,1.4-3.5,0.6c-0.6-0.4-0.9-1-1-1.6l-6,4.9c0.2,0.7,0.1,1.4-0.4,2
			c-0.7,1-2.1,1.3-3.1,0.8l-0.5,0.4c1,0.8,1.2,2.3,0.5,3.3c-0.8,1.1-2.3,1.4-3.5,0.6c-0.3-0.2-0.6-0.6-0.8-0.9l-1.1,0.9
			c0.5,0,1.1,0.1,1.6,0.4c1.1,0.8,1.4,2.3,0.6,3.5c-0.8,1.1-2.3,1.4-3.5,0.6c-0.9-0.6-1.2-1.7-1-2.7l-2.8,2.3c0,0.4-0.2,0.8-0.4,1.2
			c-0.5,0.8-1.4,1.1-2.3,1l-0.8,0.7c0.6,0.8,0.6,1.9,0,2.8c-0.7,1-2.1,1.3-3.2,0.8c-0.1,0.2-0.2,0.4-0.2,0.6c0.8,0.8,1,2.2,0.3,3.2
			l0,0c0.1,0.2,0.2,0.3,0.3,0.5c0-0.1,0.1-0.1,0.1-0.2c0.8-1.1,2.3-1.4,3.5-0.6c0.9,0.7,1.3,1.8,0.9,2.9c1,0,2-0.4,3-1.4
			c-0.3-0.7-0.2-1.6,0.3-2.3c0.7-1,2.1-1.3,3.2-0.8l0.5-0.4c-1-0.8-1.2-2.3-0.5-3.3c0.8-1.1,2.3-1.4,3.5-0.6
			c0.3,0.2,0.5,0.5,0.7,0.8l0.9-0.8c-0.5,0-0.9-0.2-1.4-0.4c-1.1-0.8-1.4-2.3-0.6-3.5c0.8-1.1,2.3-1.4,3.5-0.6
			c0.8,0.6,1.1,1.5,1,2.4l2.9-2.5c0.1-0.2,0.2-0.4,0.3-0.7c0.4-0.6,1-0.9,1.7-1l1.3-1.1c-0.3-0.8-0.3-1.7,0.2-2.4
			c0.8-1.1,2.3-1.4,3.4-0.7l0.4-0.4l0,0c-1.1-0.8-1.4-2.3-0.6-3.5c0.8-1.1,2.3-1.4,3.5-0.6c0.4,0.3,0.6,0.6,0.8,1l1.2-1
			c-0.6,0.1-1.2-0.1-1.7-0.4c-1.1-0.8-1.4-2.3-0.6-3.5c0.8-1.1,2.3-1.4,3.5-0.6c0.9,0.6,1.2,1.7,1,2.7l2.9-2.4
			c0.1-0.4,0.2-0.7,0.4-1c0.5-0.7,1.2-1,2-1.1l1-0.9c-0.4-0.8-0.4-1.8,0.1-2.6c0.8-1.1,2.3-1.4,3.5-0.6l0.1,0.1l0.5-0.4
			c-0.1,0-0.2-0.1-0.2-0.1c-1.1-0.8-1.4-2.3-0.6-3.5c0.8-1.1,2.3-1.4,3.5-0.6c0.4,0.3,0.7,0.7,0.9,1.2l1.5-1.3
			c-0.7,0.2-1.5,0.1-2.1-0.3c-1.1-0.8-1.4-2.3-0.6-3.5s2.3-1.4,3.5-0.6c1,0.7,1.3,2,0.8,3.1l3-2.5c0-0.5,0.2-0.9,0.4-1.3
			c0.5-0.8,1.4-1.1,2.3-1l0.8-0.7c-0.5-0.8-0.6-1.9,0-2.8c0.8-1.1,2.3-1.4,3.5-0.6c0.1,0.1,0.2,0.1,0.2,0.2l0.5-0.4
			c-0.1-0.1-0.3-0.1-0.4-0.2c-1.1-0.8-1.4-2.3-0.6-3.5c0.8-1.1,2.3-1.4,3.5-0.6c0.5,0.3,0.8,0.8,1,1.4c0.4-0.4,0.9-0.9,1.4-1.5
			c-0.7,0.2-1.5,0.1-2.1-0.3c-1.1-0.8-1.4-2.3-0.6-3.5c0.8-1.1,2.3-1.4,3.5-0.6c0.7,0.5,1.1,1.4,1,2.2c0.5-0.7,1.1-1.5,1.6-2.4
			c-0.8,0.3-1.6,0.2-2.4-0.3c-1.1-0.8-1.4-2.3-0.6-3.5c0.8-1.1,2.3-1.4,3.5-0.6c0.6,0.4,0.9,1,1,1.6c0.3-0.5,0.5-1.1,0.8-1.6
			c-0.5,0-1-0.1-1.5-0.4c-1.1-0.8-1.4-2.3-0.6-3.5c0.8-1.1,2.3-1.4,3.5-0.6c0.1,0,0.1,0.1,0.2,0.2c0.1-0.2,0.1-0.4,0.2-0.6l0,0
			c-1.1-0.8-1.4-2.3-0.6-3.5c0.4-0.5,0.9-0.9,1.5-1c0.1-1,0.2-2,0.3-3.1c-0.8,0.4-1.8,0.4-2.6-0.1c-1.1-0.8-1.4-2.3-0.6-3.5
			c0.7-1,2.1-1.3,3.2-0.7c0-0.3,0-0.6-0.1-1c-0.5-0.7-0.6-1.6-0.2-2.4c0-0.3-0.1-0.6-0.1-0.9c0,0.1-0.1,0.1-0.1,0.2
			C578.2,313.4,576.6,313.6,575.5,312.9z M492.2,359.2c-0.8,1.1-2.3,1.4-3.5,0.6c-1.1-0.8-1.4-2.3-0.6-3.5c0.8-1.1,2.3-1.4,3.5-0.6
			C492.7,356.6,493,358.1,492.2,359.2z M495.4,354.7c-0.8,1.1-2.3,1.4-3.5,0.6c-1.1-0.8-1.4-2.3-0.6-3.5c0.8-1.1,2.3-1.4,3.5-0.6
			C495.9,352,496.1,353.6,495.4,354.7z M509.8,391.8c-0.8,1.1-2.3,1.4-3.5,0.6c-1.1-0.8-1.4-2.3-0.6-3.5c0.8-1.1,2.3-1.4,3.5-0.6
			C510.3,389.1,510.6,390.6,509.8,391.8z M513,387.2c-0.8,1.1-2.3,1.4-3.5,0.6c-1.1-0.8-1.4-2.3-0.6-3.5c0.8-1.1,2.3-1.4,3.5-0.6
			C513.5,384.6,513.8,386.1,513,387.2z M523.8,381.4c-0.8,1.1-2.3,1.4-3.5,0.6c-1.1-0.8-1.4-2.3-0.6-3.5c0.8-1.1,2.3-1.4,3.5-0.6
			C524.3,378.7,524.6,380.2,523.8,381.4z M527,376.9c-0.8,1.1-2.3,1.4-3.5,0.6c-1.1-0.8-1.4-2.3-0.6-3.5c0.8-1.1,2.3-1.4,3.5-0.6
			C527.5,374.2,527.8,375.7,527,376.9z M530.2,372.3c-0.8,1.1-2.3,1.4-3.5,0.6c-1.1-0.8-1.4-2.3-0.6-3.5c0.8-1.1,2.3-1.4,3.5-0.6
			C530.7,369.7,530.9,371.2,530.2,372.3z M573.8,305.6c1.1,0.8,1.4,2.3,0.6,3.5c-0.8,1.1-2.3,1.4-3.5,0.6c-1.1-0.8-1.4-2.3-0.6-3.5
			C571.2,305.1,572.7,304.8,573.8,305.6z M553.8,324.6c-1.1-0.8-1.4-2.3-0.6-3.5c0.8-1.1,2.3-1.4,3.5-0.6c1.1,0.8,1.4,2.3,0.6,3.5
			C556.5,325.1,554.9,325.4,553.8,324.6z M554.1,328.5c-0.8,1.1-2.3,1.4-3.5,0.6c-1.1-0.8-1.4-2.3-0.6-3.5c0.8-1.1,2.3-1.4,3.5-0.6
			C554.6,325.8,554.9,327.4,554.1,328.5z M557,320.1c-1.1-0.8-1.4-2.3-0.6-3.5c0.8-1.1,2.3-1.4,3.5-0.6c1.1,0.8,1.4,2.3,0.6,3.5
			C559.6,320.6,558.1,320.9,557,320.1z M560.1,315.6c-1.1-0.8-1.4-2.3-0.6-3.5c0.8-1.1,2.3-1.4,3.5-0.6c1.1,0.8,1.4,2.3,0.6,3.5
			C562.8,316.1,561.3,316.3,560.1,315.6z M558.8,307.9c-1.1-0.8-1.4-2.3-0.6-3.5c0.8-1.1,2.3-1.4,3.5-0.6c1.1,0.8,1.4,2.3,0.6,3.5
			C561.5,308.4,559.9,308.7,558.8,307.9z M557.7,304.1c-0.8,1.1-2.3,1.4-3.5,0.6c-1.1-0.8-1.4-2.3-0.6-3.5c0.8-1.1,2.3-1.4,3.5-0.6
			C558.2,301.4,558.5,303,557.7,304.1z M558.5,308.3c1.1,0.8,1.4,2.3,0.6,3.5c-0.8,1.1-2.3,1.4-3.5,0.6c-1.1-0.8-1.4-2.3-0.6-3.5
			S557.3,307.5,558.5,308.3z M555.3,312.9c1.1,0.8,1.4,2.3,0.6,3.5c-0.8,1.1-2.3,1.4-3.5,0.6c-1.1-0.8-1.4-2.3-0.6-3.5
			C552.6,312.3,554.2,312.1,555.3,312.9z M552.1,317.4c1.1,0.8,1.4,2.3,0.6,3.5c-0.8,1.1-2.3,1.4-3.5,0.6c-1.1-0.8-1.4-2.3-0.6-3.5
			C549.5,316.9,551,316.6,552.1,317.4z M549,321.9c1.1,0.8,1.4,2.3,0.6,3.5c-0.8,1.1-2.3,1.4-3.5,0.6c-1.1-0.8-1.4-2.3-0.6-3.5
			S547.9,321.1,549,321.9z M545.8,326.4c1.1,0.8,1.4,2.3,0.6,3.5c-0.8,1.1-2.3,1.4-3.5,0.6c-1.1-0.8-1.4-2.3-0.6-3.5
			C543.1,325.9,544.7,325.6,545.8,326.4z M542.6,330.9c1.1,0.8,1.4,2.3,0.6,3.5c-0.8,1.1-2.3,1.4-3.5,0.6c-1.1-0.8-1.4-2.3-0.6-3.5
			C540,330.4,541.5,330.1,542.6,330.9z M539.5,335.4c1.1,0.8,1.4,2.3,0.6,3.5c-0.8,1.1-2.3,1.4-3.5,0.6c-1.1-0.8-1.4-2.3-0.6-3.5
			C536.8,334.9,538.4,334.7,539.5,335.4z M540.5,339.2c0.8-1.1,2.3-1.4,3.5-0.6c1.1,0.8,1.4,2.3,0.6,3.5c-0.8,1.1-2.3,1.4-3.5,0.6
			C540,341.9,539.8,340.3,540.5,339.2z M544.3,338.2c-1.1-0.8-1.4-2.3-0.6-3.5c0.8-1.1,2.3-1.4,3.5-0.6c1.1,0.8,1.4,2.3,0.6,3.5
			C547,338.7,545.4,338.9,544.3,338.2z M547.5,333.6c-1.1-0.8-1.4-2.3-0.6-3.5c0.8-1.1,2.3-1.4,3.5-0.6c1.1,0.8,1.4,2.3,0.6,3.5
			C550.2,334.1,548.6,334.4,547.5,333.6z M551.4,333.3c0.8-1.1,2.3-1.4,3.5-0.6c1.1,0.8,1.4,2.3,0.6,3.5c-0.8,1.1-2.3,1.4-3.5,0.6
			C550.9,336,550.6,334.5,551.4,333.3z M555.2,332.3c-1.1-0.8-1.4-2.3-0.6-3.5c0.8-1.1,2.3-1.4,3.5-0.6c1.1,0.8,1.4,2.3,0.6,3.5
			C557.8,332.8,556.3,333.1,555.2,332.3z M558.3,327.8c-1.1-0.8-1.4-2.3-0.6-3.5c0.8-1.1,2.3-1.4,3.5-0.6c1.1,0.8,1.4,2.3,0.6,3.5
			S559.5,328.5,558.3,327.8z M561.5,323.2c-1.1-0.8-1.4-2.3-0.6-3.5c0.8-1.1,2.3-1.4,3.5-0.6c1.1,0.8,1.4,2.3,0.6,3.5
			C564.2,323.8,562.6,324,561.5,323.2z M564.7,318.7c-1.1-0.8-1.4-2.3-0.6-3.5c0.8-1.1,2.3-1.4,3.5-0.6c1.1,0.8,1.4,2.3,0.6,3.5
			C567.3,319.2,565.8,319.5,564.7,318.7z M563.3,311c-1.1-0.8-1.4-2.3-0.6-3.5c0.8-1.1,2.3-1.4,3.5-0.6s1.4,2.3,0.6,3.5
			C566,311.6,564.4,311.8,563.3,311z M566.5,306.5c-1.1-0.8-1.4-2.3-0.6-3.5c0.8-1.1,2.3-1.4,3.5-0.6c1.1,0.8,1.4,2.3,0.6,3.5
			C569.1,307,567.6,307.3,566.5,306.5z M565.4,302.8c-0.8,1.1-2.3,1.4-3.5,0.6c-1.1-0.8-1.4-2.3-0.6-3.5c0.8-1.1,2.3-1.4,3.5-0.6
			C565.9,300.1,566.2,301.6,565.4,302.8z M560.9,299.6c-0.8,1.1-2.3,1.4-3.5,0.6c-1.1-0.8-1.4-2.3-0.6-3.5s2.3-1.4,3.5-0.6
			C561.4,296.9,561.7,298.5,560.9,299.6z M556.4,296.4c-0.8,1.1-2.3,1.4-3.5,0.6s-1.4-2.3-0.6-3.5c0.8-1.1,2.3-1.4,3.5-0.6
			C556.9,293.8,557.1,295.3,556.4,296.4z M552.6,297.5c1.1,0.8,1.4,2.3,0.6,3.5c-0.8,1.1-2.3,1.4-3.5,0.6c-1.1-0.8-1.4-2.3-0.6-3.5
			C549.9,297,551.5,296.7,552.6,297.5z M553.9,305.2c1.1,0.8,1.4,2.3,0.6,3.5s-2.3,1.4-3.5,0.6c-1.1-0.8-1.4-2.3-0.6-3.5
			C551.3,304.7,552.8,304.4,553.9,305.2z M550.8,309.7c1.1,0.8,1.4,2.3,0.6,3.5c-0.8,1.1-2.3,1.4-3.5,0.6c-1.1-0.8-1.4-2.3-0.6-3.5
			C548.1,309.2,549.7,308.9,550.8,309.7z M547.6,314.2c1.1,0.8,1.4,2.3,0.6,3.5c-0.8,1.1-2.3,1.4-3.5,0.6c-1.1-0.8-1.4-2.3-0.6-3.5
			C544.9,313.7,546.5,313.4,547.6,314.2z M544.5,318.7c1.1,0.8,1.4,2.3,0.6,3.5c-0.8,1.1-2.3,1.4-3.5,0.6c-1.1-0.8-1.4-2.3-0.6-3.5
			C541.8,318.2,543.3,317.9,544.5,318.7z M541.3,323.2c1.1,0.8,1.4,2.3,0.6,3.5c-0.8,1.1-2.3,1.4-3.5,0.6c-1.1-0.8-1.4-2.3-0.6-3.5
			C538.6,322.7,540.2,322.5,541.3,323.2z M538.1,327.8c1.1,0.8,1.4,2.3,0.6,3.5c-0.8,1.1-2.3,1.4-3.5,0.6c-1.1-0.8-1.4-2.3-0.6-3.5
			C535.5,327.2,537,327,538.1,327.8z M535,332.3c1.1,0.8,1.4,2.3,0.6,3.5c-0.8,1.1-2.3,1.4-3.5,0.6c-1.1-0.8-1.4-2.3-0.6-3.5
			C532.3,331.8,533.8,331.5,535,332.3z M531.1,332.6c-0.8,1.1-2.3,1.4-3.5,0.6s-1.4-2.3-0.6-3.5c0.8-1.1,2.3-1.4,3.5-0.6
			C531.6,329.9,531.8,331.4,531.1,332.6z M527.3,333.6c1.1,0.8,1.4,2.3,0.6,3.5c-0.8,1.1-2.3,1.4-3.5,0.6c-1.1-0.8-1.4-2.3-0.6-3.5
			C524.6,333.1,526.2,332.8,527.3,333.6z M524.1,338.2c1.1,0.8,1.4,2.3,0.6,3.5c-0.8,1.1-2.3,1.4-3.5,0.6c-1.1-0.8-1.4-2.3-0.6-3.5
			C521.5,337.6,523,337.4,524.1,338.2z M525.2,341.9c0.8-1.1,2.3-1.4,3.5-0.6c1.1,0.8,1.4,2.3,0.6,3.5c-0.8,1.1-2.3,1.4-3.5,0.6
			C524.7,344.6,524.4,343,525.2,341.9z M529,340.9c-1.1-0.8-1.4-2.3-0.6-3.5c0.8-1.1,2.3-1.4,3.5-0.6c1.1,0.8,1.4,2.3,0.6,3.5
			C531.6,341.4,530.1,341.7,529,340.9z M532.9,340.6c0.8-1.1,2.3-1.4,3.5-0.6c1.1,0.8,1.4,2.3,0.6,3.5s-2.3,1.4-3.5,0.6
			C532.4,343.2,532.1,341.7,532.9,340.6z M537.4,343.7c0.8-1.1,2.3-1.4,3.5-0.6c1.1,0.8,1.4,2.3,0.6,3.5c-0.8,1.1-2.3,1.4-3.5,0.6
			C536.9,346.4,536.6,344.9,537.4,343.7z M542.2,350.8c1.1,0.8,1.4,2.3,0.6,3.5c-0.8,1.1-2.3,1.4-3.5,0.6c-1.1-0.8-1.4-2.3-0.6-3.5
			C539.5,350.3,541.1,350,542.2,350.8z M542.5,350.4c-1.1-0.8-1.4-2.3-0.6-3.5c0.8-1.1,2.3-1.4,3.5-0.6c1.1,0.8,1.4,2.3,0.6,3.5
			C545.2,350.9,543.6,351.1,542.5,350.4z M545.7,345.8c-1.1-0.8-1.4-2.3-0.6-3.5c0.8-1.1,2.3-1.4,3.5-0.6s1.4,2.3,0.6,3.5
			C548.3,346.3,546.8,346.6,545.7,345.8z M548.8,341.3c-1.1-0.8-1.4-2.3-0.6-3.5c0.8-1.1,2.3-1.4,3.5-0.6c1.1,0.8,1.4,2.3,0.6,3.5
			C551.5,341.8,550,342.1,548.8,341.3z M552.7,341c0.8-1.1,2.3-1.4,3.5-0.6c1.1,0.8,1.4,2.3,0.6,3.5c-0.8,1.1-2.3,1.4-3.5,0.6
			C552.2,343.7,552,342.1,552.7,341z M556.5,340c-1.1-0.8-1.4-2.3-0.6-3.5s2.3-1.4,3.5-0.6c1.1,0.8,1.4,2.3,0.6,3.5
			S557.6,340.7,556.5,340z M559.7,335.4c-1.1-0.8-1.4-2.3-0.6-3.5c0.8-1.1,2.3-1.4,3.5-0.6c1.1,0.8,1.4,2.3,0.6,3.5
			C562.4,336,560.8,336.2,559.7,335.4z M562.8,330.9c-1.1-0.8-1.4-2.3-0.6-3.5c0.8-1.1,2.3-1.4,3.5-0.6c1.1,0.8,1.4,2.3,0.6,3.5
			C565.5,331.4,564,331.7,562.8,330.9z M566,326.4c-1.1-0.8-1.4-2.3-0.6-3.5c0.8-1.1,2.3-1.4,3.5-0.6c1.1,0.8,1.4,2.3,0.6,3.5
			C568.7,326.9,567.1,327.2,566,326.4z M569.2,321.9c-1.1-0.8-1.4-2.3-0.6-3.5s2.3-1.4,3.5-0.6c1.1,0.8,1.4,2.3,0.6,3.5
			C571.8,322.4,570.3,322.7,569.2,321.9z M567.8,314.2c-1.1-0.8-1.4-2.3-0.6-3.5c0.8-1.1,2.3-1.4,3.5-0.6c1.1,0.8,1.4,2.3,0.6,3.5
			C570.5,314.7,568.9,315,567.8,314.2z M572.5,297.9c1.1,0.8,1.4,2.3,0.6,3.5c-0.8,1.1-2.3,1.4-3.5,0.6c-1.1-0.8-1.4-2.3-0.6-3.5
			C569.8,297.4,571.3,297.2,572.5,297.9z M568,294.8c1.1,0.8,1.4,2.3,0.6,3.5c-0.8,1.1-2.3,1.4-3.5,0.6c-1.1-0.8-1.4-2.3-0.6-3.5
			S566.8,294,568,294.8z M563.4,291.6c1.1,0.8,1.4,2.3,0.6,3.5s-2.3,1.4-3.5,0.6c-1.1-0.8-1.4-2.3-0.6-3.5
			C560.8,291.1,562.3,290.8,563.4,291.6z M558.9,288.5c1.1,0.8,1.4,2.3,0.6,3.5c-0.8,1.1-2.3,1.4-3.5,0.6c-1.1-0.8-1.4-2.3-0.6-3.5
			C556.2,287.9,557.8,287.7,558.9,288.5z M550.9,285.9c0.8-1.1,2.3-1.4,3.5-0.6c1.1,0.8,1.4,2.3,0.6,3.5c-0.8,1.1-2.3,1.4-3.5,0.6
			C550.4,288.6,550.2,287,550.9,285.9z M551.2,289.8c1.1,0.8,1.4,2.3,0.6,3.5c-0.8,1.1-2.3,1.4-3.5,0.6c-1.1-0.8-1.4-2.3-0.6-3.5
			C548.6,289.3,550.1,289,551.2,289.8z M543.9,290.7c-1.1-0.8-1.4-2.3-0.6-3.5c0.8-1.1,2.3-1.4,3.5-0.6c1.1,0.8,1.4,2.3,0.6,3.5
			C546.5,291.2,545,291.5,543.9,290.7z M545.2,298.4c-1.1-0.8-1.4-2.3-0.6-3.5c0.8-1.1,2.3-1.4,3.5-0.6c1.1,0.8,1.4,2.3,0.6,3.5
			C547.9,298.9,546.3,299.2,545.2,298.4z M546,302.6c0.8-1.1,2.3-1.4,3.5-0.6c1.1,0.8,1.4,2.3,0.6,3.5c-0.8,1.1-2.3,1.4-3.5,0.6
			C545.5,305.3,545.2,303.7,546,302.6z M542.8,307.1c0.8-1.1,2.3-1.4,3.5-0.6c1.1,0.8,1.4,2.3,0.6,3.5c-0.8,1.1-2.3,1.4-3.5,0.6
			S542,308.3,542.8,307.1z M539.6,311.7c0.8-1.1,2.3-1.4,3.5-0.6c1.1,0.8,1.4,2.3,0.6,3.5c-0.8,1.1-2.3,1.4-3.5,0.6
			C539.1,314.3,538.9,312.8,539.6,311.7z M536.5,316.2c0.8-1.1,2.3-1.4,3.5-0.6c1.1,0.8,1.4,2.3,0.6,3.5c-0.8,1.1-2.3,1.4-3.5,0.6
			C536,318.8,535.7,317.3,536.5,316.2z M533.3,320.7c0.8-1.1,2.3-1.4,3.5-0.6c1.1,0.8,1.4,2.3,0.6,3.5c-0.8,1.1-2.3,1.4-3.5,0.6
			C532.8,323.4,532.5,321.8,533.3,320.7z M533.6,324.6c1.1,0.8,1.4,2.3,0.6,3.5c-0.8,1.1-2.3,1.4-3.5,0.6c-1.1-0.8-1.4-2.3-0.6-3.5
			C530.9,324.1,532.5,323.8,533.6,324.6z M525.6,322c0.8-1.1,2.3-1.4,3.5-0.6c1.1,0.8,1.4,2.3,0.6,3.5c-0.8,1.1-2.3,1.4-3.5,0.6
			C525.1,324.7,524.9,323.2,525.6,322z M522.5,326.6c0.8-1.1,2.3-1.4,3.5-0.6c1.1,0.8,1.4,2.3,0.6,3.5c-0.8,1.1-2.3,1.4-3.5,0.6
			C522,329.2,521.7,327.7,522.5,326.6z M519.3,331.1c0.8-1.1,2.3-1.4,3.5-0.6c1.1,0.8,1.4,2.3,0.6,3.5c-0.8,1.1-2.3,1.4-3.5,0.6
			C518.8,333.8,518.5,332.2,519.3,331.1z M516.1,335.6c0.8-1.1,2.3-1.4,3.5-0.6c1.1,0.8,1.4,2.3,0.6,3.5c-0.8,1.1-2.3,1.4-3.5,0.6
			C515.6,338.3,515.4,336.7,516.1,335.6z M506.2,348.8c-0.8,1.1-2.3,1.4-3.5,0.6c-1.1-0.8-1.4-2.3-0.6-3.5c0.8-1.1,2.3-1.4,3.5-0.6
			C506.7,346.2,507,347.7,506.2,348.8z M509.4,344.3c-0.8,1.1-2.3,1.4-3.5,0.6c-1.1-0.8-1.4-2.3-0.6-3.5c0.8-1.1,2.3-1.4,3.5-0.6
			C509.9,341.6,510.2,343.2,509.4,344.3z M509.1,340.4c-1.1-0.8-1.4-2.3-0.6-3.5c0.8-1.1,2.3-1.4,3.5-0.6c1.1,0.8,1.4,2.3,0.6,3.5
			C511.7,340.9,510.2,341.2,509.1,340.4z M513.6,343.6c-1.1-0.8-1.4-2.3-0.6-3.5c0.8-1.1,2.3-1.4,3.5-0.6c1.1,0.8,1.4,2.3,0.6,3.5
			C516.3,344.1,514.7,344.4,513.6,343.6z M518.1,346.7c-1.1-0.8-1.4-2.3-0.6-3.5c0.8-1.1,2.3-1.4,3.5-0.6c1.1,0.8,1.4,2.3,0.6,3.5
			C520.8,347.3,519.2,347.5,518.1,346.7z M513.4,367.4c-0.8,1.1-2.3,1.4-3.5,0.6c-1.1-0.8-1.4-2.3-0.6-3.5c0.8-1.1,2.3-1.4,3.5-0.6
			C513.9,364.7,514.2,366.2,513.4,367.4z M516.6,362.8c-0.8,1.1-2.3,1.4-3.5,0.6c-1.1-0.8-1.4-2.3-0.6-3.5c0.8-1.1,2.3-1.4,3.5-0.6
			C517.1,360.2,517.4,361.7,516.6,362.8z M519.8,358.3c-0.8,1.1-2.3,1.4-3.5,0.6c-1.1-0.8-1.4-2.3-0.6-3.5c0.8-1.1,2.3-1.4,3.5-0.6
			C520.3,355.7,520.5,357.2,519.8,358.3z M522.9,353.8c-0.8,1.1-2.3,1.4-3.5,0.6c-1.1-0.8-1.4-2.3-0.6-3.5c0.8-1.1,2.3-1.4,3.5-0.6
			C523.4,351.1,523.7,352.7,522.9,353.8z M522.6,349.9c-1.1-0.8-1.4-2.3-0.6-3.5c0.8-1.1,2.3-1.4,3.5-0.6c1.1,0.8,1.4,2.3,0.6,3.5
			C525.3,350.4,523.8,350.7,522.6,349.9z M530.6,352.5c-0.8,1.1-2.3,1.4-3.5,0.6c-1.1-0.8-1.4-2.3-0.6-3.5c0.8-1.1,2.3-1.4,3.5-0.6
			C531.1,349.8,531.4,351.3,530.6,352.5z M530.3,348.5c-1.1-0.8-1.4-2.3-0.6-3.5s2.3-1.4,3.5-0.6c1.1,0.8,1.4,2.3,0.6,3.5
			S531.4,349.3,530.3,348.5z M534.8,351.7c-1.1-0.8-1.4-2.3-0.6-3.5c0.8-1.1,2.3-1.4,3.5-0.6c1.1,0.8,1.4,2.3,0.6,3.5
			C537.5,352.2,536,352.5,534.8,351.7z M536.2,359.4c-1.1-0.8-1.4-2.3-0.6-3.5c0.8-1.1,2.3-1.4,3.5-0.6c1.1,0.8,1.4,2.3,0.6,3.5
			C538.9,359.9,537.3,360.2,536.2,359.4z M541,366.5c-0.8,1.1-2.3,1.4-3.5,0.6c-1.1-0.8-1.4-2.3-0.6-3.5c0.8-1.1,2.3-1.4,3.5-0.6
			C541.5,363.8,541.8,365.3,541,366.5z M544.2,361.9c-0.8,1.1-2.3,1.4-3.5,0.6c-1.1-0.8-1.4-2.3-0.6-3.5c0.8-1.1,2.3-1.4,3.5-0.6
			C544.7,359.3,544.9,360.8,544.2,361.9z M547.3,357.4c-0.8,1.1-2.3,1.4-3.5,0.6c-1.1-0.8-1.4-2.3-0.6-3.5c0.8-1.1,2.3-1.4,3.5-0.6
			C547.8,354.8,548.1,356.3,547.3,357.4z M550.5,352.9c-0.8,1.1-2.3,1.4-3.5,0.6c-1.1-0.8-1.4-2.3-0.6-3.5c0.8-1.1,2.3-1.4,3.5-0.6
			C551,350.2,551.3,351.8,550.5,352.9z M550.2,349c-1.1-0.8-1.4-2.3-0.6-3.5c0.8-1.1,2.3-1.4,3.5-0.6c1.1,0.8,1.4,2.3,0.6,3.5
			C552.9,349.5,551.3,349.8,550.2,349z M558.2,351.6c-0.8,1.1-2.3,1.4-3.5,0.6c-1.1-0.8-1.4-2.3-0.6-3.5c0.8-1.1,2.3-1.4,3.5-0.6
			C558.7,348.9,559,350.4,558.2,351.6z M561.3,347c-0.8,1.1-2.3,1.4-3.5,0.6c-1.1-0.8-1.4-2.3-0.6-3.5c0.8-1.1,2.3-1.4,3.5-0.6
			C561.8,344.4,562.1,345.9,561.3,347z M564.5,342.5c-0.8,1.1-2.3,1.4-3.5,0.6c-1.1-0.8-1.4-2.3-0.6-3.5c0.8-1.1,2.3-1.4,3.5-0.6
			C565,339.8,565.3,341.4,564.5,342.5z M567.7,338c-0.8,1.1-2.3,1.4-3.5,0.6c-1.1-0.8-1.4-2.3-0.6-3.5c0.8-1.1,2.3-1.4,3.5-0.6
			C568.2,335.3,568.4,336.9,567.7,338z M570.8,333.5c-0.8,1.1-2.3,1.4-3.5,0.6c-1.1-0.8-1.4-2.3-0.6-3.5c0.8-1.1,2.3-1.4,3.5-0.6
			C571.3,330.8,571.6,332.4,570.8,333.5z M574,329c-0.8,1.1-2.3,1.4-3.5,0.6c-1.1-0.8-1.4-2.3-0.6-3.5c0.8-1.1,2.3-1.4,3.5-0.6
			C574.5,326.3,574.8,327.8,574,329z M576.5,321c1.1,0.8,1.4,2.3,0.6,3.5s-2.3,1.4-3.5,0.6c-1.1-0.8-1.4-2.3-0.6-3.5
			C573.9,320.5,575.4,320.2,576.5,321z M575.8,316.8c-0.8,1.1-2.3,1.4-3.5,0.6c-1.1-0.8-1.4-2.3-0.6-3.5c0.8-1.1,2.3-1.4,3.5-0.6
			C576.3,314.1,576.6,315.6,575.8,316.8z"/>
		<path class="st1" d="M495.4,374.9c0-0.1,0.1-0.1,0.1-0.1c-0.2-0.1-0.3-0.2-0.5-0.3c0,0,0,0.1-0.1,0.1c-0.8,1.1-2.3,1.4-3.5,0.6
			c-0.2-0.1-0.3-0.2-0.4-0.4c-0.3,0.1-0.5,0.3-0.8,0.4c0.3,0.1,0.6,0.2,0.9,0.4c1.1,0.8,1.4,2.3,0.6,3.5c-0.8,1.1-2.3,1.4-3.5,0.6
			c-0.7-0.5-1-1.2-1-2l-1.7,1.5l-1.4,1c0,0.1-0.1,0.2-0.1,0.2c-0.2,0.4-0.6,0.6-0.9,0.8c-0.9,1-1.5,1.8-1.8,2.6
			c0,0.3-0.1,0.6-0.3,0.9c-0.1,0.5-0.1,1,0,1.4c0.1-0.3,0.2-0.5,0.4-0.8c0.8-1.1,2.3-1.4,3.5-0.6c1.1,0.8,1.4,2.3,0.6,3.5
			c-0.4,0.6-1.1,1-1.8,1c0.6,0.3,1.2,0.4,1.8,0.3c0.1-0.4,0.2-0.7,0.4-1.1c0.8-1.1,2.3-1.4,3.5-0.6c0.1,0.1,0.1,0.1,0.2,0.2
			c0.2-0.2,0.4-0.3,0.6-0.4c-0.2-0.1-0.3-0.1-0.5-0.3c-1.1-0.8-1.4-2.3-0.6-3.5c0.8-1.1,2.3-1.4,3.5-0.6c0.5,0.4,0.9,0.9,1,1.5
			l1.9-1.6c1.7-1.6,2.2-3.2,2.2-4.5c-0.6,0-1.1-0.1-1.6-0.4C494.8,377.6,494.6,376,495.4,374.9z M488.6,383.6
			c-0.8,1.1-2.3,1.4-3.5,0.6c-1.1-0.8-1.4-2.3-0.6-3.5c0.8-1.1,2.3-1.4,3.5-0.6C489.1,381,489.4,382.5,488.6,383.6z M496.3,382.3
			c-0.8,1.1-2.3,1.4-3.5,0.6c-1.1-0.8-1.4-2.3-0.6-3.5c0.8-1.1,2.3-1.4,3.5-0.6C496.8,379.6,497.1,381.2,496.3,382.3z"/>
	</g>
	
		<radialGradient id="SVGID_1_" cx="494.1598" cy="285.9" r="83.8927" gradientTransform="matrix(1 0 0 -1 0 568)" gradientUnits="userSpaceOnUse">
		<stop  offset="0" style="stop-color:#C43F3B"/>
		<stop  offset="0.2482" style="stop-color:#BC3632"/>
		<stop  offset="0.7295" style="stop-color:#A21319"/>
		<stop  offset="0.7306" style="stop-color:#A21219"/>
		<stop  offset="0.9974" style="stop-color:#85181A"/>
	</radialGradient>
	<path class="st2" d="M586,275.3c0,0-9.3-23.8-43.4-34.8c-33.2-10.7-63.2,22.9-63.2,22.9c-3.7,4.1-8,7.6-11.3,10.2
		c-6.8,5.2-14.2,7.3-14.2,7.3c-5,0.9-6.6,2-14.9,1.4c-11.8-0.9-20.2-6.2-26.1-14.5c-18.5-26.2,4.8-49,4.8-49
		c-9.2,6.8-14.7,19.9-14.7,19.9c-17.2,40.3,8.9,65.2,8.9,65.2c24.1,28.7,59.9,19.8,59.9,19.8c17.8-2.3,44-28.7,44-28.7
		c10.5-12.3,24.8-13.8,24.8-13.8c25.4-3.6,36.8,16.9,36.8,16.9c13,24.6-7.3,47.3-7.3,47.3c0.1-0.1,2.5-2.1,5.1-5.2
		c3.8-4.5,8.1-10.5,8.1-10.5C599.3,301.6,586,275.3,586,275.3z"/>
	<g>
		<path class="st1" d="M499.5,201.9c-0.2,0-0.4,0.1-0.5,0.1c0.2,1.3-0.7,2.6-2,2.8c-0.7,0.1-1.3,0-1.8-0.4l-2.4,2
			c0.9,0.3,1.6,1,1.7,1.9c0.2,1.3-0.7,2.6-2,2.9c-1.3,0.2-2.6-0.7-2.9-2c0-0.1,0-0.1,0-0.2l-0.5,0.4c0.1,1.3-0.7,2.5-2,2.7
			c-0.4,0.1-0.8,0-1.1-0.1l-2.4,2c0.5,0.4,0.9,0.9,1,1.6c0.2,1.3-0.7,2.6-2,2.9c-1.2,0.2-2.3-0.5-2.7-1.5c-0.2,0.1-0.4,0.2-0.7,0.3
			c-0.1,1.1-0.9,2-2,2.2c-1.3,0.2-2.6-0.7-2.9-2c0-0.3,0-0.5,0-0.8l0,0c0,0-1.4-1.2-1.7-2.9c-0.4,0.6-1,1.1-1.7,1.2
			c-1.3,0.2-2.6-0.7-2.9-2c-0.2-1.3,0.7-2.6,2-2.9c1.2-0.2,2.4,0.5,2.8,1.6c0.2-0.4,0.5-0.9,0.9-1.3c0.3-0.5,0.7-0.9,1.3-1.1
			l1.3-1.1c-0.3,0.2-0.6,0.4-1,0.4c-1.3,0.2-2.6-0.7-2.9-2c-0.2-1.3,0.7-2.6,2-2.9c1.3-0.2,2.6,0.7,2.9,2c0.1,0.8-0.1,1.7-0.7,2.2
			l1.7-1.4c-0.2-0.3-0.3-0.6-0.4-1c-0.2-1.3,0.7-2.6,2-2.9c0.8-0.1,1.6,0.1,2.2,0.7l2.6-2.2c-1.2,0-2.2-0.9-2.4-2
			c-0.2-1.3,0.7-2.6,2-2.9c1.1-0.2,2.2,0.4,2.6,1.4c0.3-1.2,0.2-2.6-0.7-4c-0.1,1.1-0.9,2-2,2.1c-1.3,0.2-2.6-0.7-2.9-2
			c-0.1-0.5,0-0.9,0.1-1.3c-0.4,0.1-0.7,0.2-1.1,0.4c0.2,0.3,0.4,0.6,0.4,1c0.2,1.3-0.7,2.6-2,2.9c-0.9,0.2-1.8-0.2-2.4-0.9
			l-2.8,2.4c1.3-0.1,2.5,0.7,2.7,2s-0.7,2.6-2,2.9c-1.3,0.2-2.6-0.7-2.9-2c-0.1-0.4,0-0.7,0-1l-0.7,0.6c0.1,0.2,0.1,0.3,0.1,0.5
			c0.2,1.3-0.7,2.6-2,2.9c-0.6,0.1-1.2,0-1.7-0.3l-2.3,2c0.8,0.3,1.4,1,1.5,1.9c0.2,1.3-0.7,2.6-2,2.9c-1.3,0.2-2.6-0.7-2.9-2
			c0-0.1,0-0.1,0-0.2c-0.2,0.1-0.4,0.2-0.5,0.2l0,0c0.2,1.3-0.7,2.6-2,2.9c-1.3,0.2-2.6-0.7-2.9-2c-0.1-0.6,0-1.2,0.3-1.7
			c-0.1-0.1-0.2-0.2-0.3-0.3c0,0-2.7-3.7,0.2-6.8c-1.1-0.1-2-0.9-2.2-2c-0.2-1.3,0.7-2.6,2-2.9c1.3-0.2,2.6,0.7,2.9,2
			c0,0.2,0,0.4,0,0.6l0.6-0.5c0-0.1,0-0.1-0.1-0.2c-0.2-1.3,0.7-2.6,2-2.9c0.6-0.1,1.1,0,1.6,0.2l2.4-1.9c-0.7-0.3-1.3-1-1.5-1.8
			c-0.2-1.3,0.7-2.6,2-2.9c1.3-0.2,2.6,0.6,2.9,2l0.5-0.4c0-1.2,0.8-2.3,2-2.5c0.3-0.1,0.7,0,1,0l2.4-2c-0.5-0.4-0.9-0.9-1-1.6
			c-0.2-1.3,0.7-2.6,2-2.9c1.1-0.2,2.2,0.4,2.7,1.4l0.8-0.6c0.3-0.9,1-1.6,1.9-1.8c0.1,0,0.2,0,0.3,0l2.8-2.3
			c-0.3-0.3-0.5-0.8-0.6-1.2c-0.2-1.3,0.7-2.6,2-2.9c0.5-0.1,0.9,0,1.3,0.1c0.1-0.5,0.2-1,0-1.6c-0.4,0.4-0.9,0.8-1.5,0.9
			c-1.3,0.2-2.6-0.7-2.9-2c-0.2-0.9,0.2-1.8,0.8-2.3c-1-0.3-2.4-0.4-3.7,0.4c1.1,0,2.2,0.9,2.4,2c0.2,1.3-0.7,2.6-2,2.9
			c-1.3,0.2-2.6-0.7-2.9-2c0-0.3,0-0.5,0-0.8l-0.6,0.5c0,0.1,0.1,0.2,0.1,0.4c0.2,1.3-0.7,2.6-2,2.9c-0.6,0.1-1.1,0-1.6-0.3
			l-2.3,1.9c0.7,0.3,1.3,1,1.4,1.8c0.2,1.3-0.7,2.6-2,2.9c-1.3,0.2-2.5-0.6-2.8-1.9l-0.6,0.5c0,1.1-0.9,2.1-2,2.3
			c-0.3,0-0.5,0-0.7,0l-2.5,2.1c0.4,0.4,0.7,0.8,0.8,1.4c0.2,1.3-0.7,2.6-2,2.9c-1,0.2-2-0.3-2.5-1.1l-1.5,1.2
			c-0.2,0.2-0.4,0.4-0.6,0.5l-1.2,1c0.1-0.1,0.3-0.1,0.4-0.1c1.3-0.2,2.6,0.7,2.9,2c0.2,1.3-0.7,2.6-2,2.9c-1.3,0.2-2.6-0.7-2.9-2
			c-0.1-0.6,0-1.2,0.3-1.7l-1.2,1c0.1,0.2,0.2,0.5,0.3,0.8c0.2,1.3-0.7,2.6-2,2.9c-0.7,0.1-1.5-0.1-2-0.5l-2.4,2.1c1,0.2,1.8,1,2,2
			c0.2,1.3-0.7,2.6-2,2.9c-1.3,0.2-2.6-0.7-2.9-2c0-0.1,0-0.3,0-0.4l-0.5,0.4l0,0c0.2,1.3-0.7,2.6-2,2.9c-0.5,0.1-0.9,0-1.3-0.1
			l-2.3,2c0.6,0.4,1,1,1.2,1.7c0.2,1.3-0.7,2.6-2,2.9c-1.2,0.2-2.3-0.5-2.7-1.5l-0.7,0.6c-0.2,1-1,1.7-2,1.9c-0.1,0-0.2,0-0.3,0
			l-2.7,2.3c0.3,0.3,0.5,0.7,0.6,1.2c0.2,1.3-0.7,2.6-2,2.9c-0.9,0.2-1.8-0.2-2.3-0.9l-2.8,2.4c1.3-0.1,2.5,0.7,2.7,2
			s-0.7,2.6-2,2.9c-1.3,0.2-2.6-0.7-2.9-2c-0.1-0.4,0-0.7,0-1c-0.2,0.2-0.5,0.4-0.7,0.7c0.1,0.1,0.1,0.3,0.1,0.4
			c0.2,1.3-0.7,2.6-2,2.9c-0.4,0.1-0.7,0-1,0c-0.6,0.8-1.2,1.6-1.8,2.6c0.2,0.3,0.3,0.6,0.4,1c0.2,1.3-0.7,2.6-2,2.9
			c-0.2,0-0.4,0-0.6,0c-0.2,0.4-0.4,0.8-0.5,1.2c0.3-0.3,0.8-0.6,1.3-0.6c1.3-0.2,2.6,0.7,2.9,2c0.2,1.3-0.7,2.6-2,2.9
			c-1.3,0.2-2.6-0.7-2.9-2c0-0.1,0-0.3,0-0.4c-0.5,1.3-0.9,2.6-1.2,4c0.8,0.3,1.5,1,1.7,1.9c0.2,1.3-0.7,2.6-2,2.9
			c-0.2,0-0.3,0-0.5,0c0,0.2,0,0.5-0.1,0.7c0.2-0.1,0.4-0.2,0.6-0.2c1.3-0.2,2.6,0.7,2.9,2c0.2,1.3-0.7,2.6-2,2.9
			c-0.5,0.1-1,0-1.5-0.2c0,0.5,0.1,1,0.1,1.5c0.4-0.4,0.8-0.7,1.4-0.8c1.3-0.2,2.6,0.7,2.9,2c0.2,1.3-0.7,2.6-2,2.9
			c-0.6,0.1-1.2,0-1.7-0.3c0.1,0.5,0.2,1.1,0.4,1.6c0.4-0.4,0.8-0.6,1.4-0.7c1.3-0.2,2.6,0.7,2.9,2c0.2,1.3-0.7,2.6-2,2.9
			c-0.3,0.1-0.6,0-0.9,0c0.1,0.2,0.2,0.5,0.3,0.8c0.2-0.1,0.4-0.2,0.6-0.2c1.3-0.2,2.6,0.7,2.9,2c0.2,1-0.3,2-1.2,2.5
			c0.2,0.3,0.4,0.7,0.7,1c0.7,0.3,1.3,1,1.5,1.8c0,0.1,0,0.2,0,0.3c0.7,0.9,1.4,1.9,2.2,2.8c0.3-0.3,0.8-0.5,1.2-0.6
			c1.3-0.2,2.6,0.7,2.9,2c0.1,0.8-0.1,1.5-0.6,2c0.7,0.6,1.5,1.2,2.3,1.7c0.3-0.7,1-1.1,1.8-1.3c1.3-0.2,2.6,0.7,2.9,2
			c0.1,0.6,0,1.1-0.3,1.6c0.9,0.4,1.9,0.8,3,1.1c0.2-0.1,0.5-0.2,0.8-0.3c1.1-0.2,2.1,0.3,2.6,1.2c0.3,0.1,0.5,0.1,0.8,0.2
			c0.1-1.1,0.9-2.1,2-2.3c1.3-0.2,2.6,0.7,2.9,2c0.1,0.3,0,0.7,0,1c0.4,0,0.8,0.1,1.2,0.1c-0.3-0.3-0.5-0.7-0.6-1.2
			c-0.2-1.3,0.7-2.6,2-2.9c1.3-0.2,2.6,0.7,2.9,2c0.2,0.9-0.2,1.7-0.8,2.3c1.6,0,4.8-0.2,8.9-1.3c-1.1-0.1-2-0.9-2.2-2
			c-0.2-1.3,0.7-2.6,2-2.9c1.3-0.2,2.6,0.7,2.9,2c0.2,0.9-0.2,1.8-0.9,2.4c0.8-0.3,1.6-0.5,2.5-0.9c-0.5-0.4-0.9-0.9-1-1.6
			c-0.1-0.6,0-1.2,0.3-1.7c-1.3,0-2.6-0.3-3.8-0.8l0,0c-1.3,0.2-2.6-0.7-2.9-2c0,0,0,0,0-0.1c-0.7-0.7-1.6-1.7-2.4-2.9
			c-0.3,0.3-0.7,0.4-1.1,0.5c-1.3,0.2-2.6-0.7-2.9-2c-0.2-1.3,0.7-2.6,2-2.9h0.1c0-0.2-0.1-0.4-0.1-0.6h-0.1c-1.3,0.2-2.6-0.7-2.9-2
			c-0.2-1.3,0.7-2.6,2-2.9c0.5-0.1,1,0,1.4,0.2c0.3-0.9,0.7-1.9,1.3-2.9c-0.1-0.2-0.2-0.5-0.3-0.8c-0.2-1.3,0.7-2.6,2-2.9
			c0.6-0.1,1.1,0,1.6,0.2l2.3-1.9c-0.7-0.3-1.2-1-1.4-1.8c-0.2-1.3,0.7-2.6,2-2.9c1.3-0.2,2.5,0.6,2.8,1.8l0.6-0.5
			c0.1-1.1,0.9-2.1,2-2.3c0.2,0,0.4,0,0.7,0l2.5-2.1c-0.4-0.4-0.6-0.8-0.7-1.4c-0.2-1.3,0.7-2.6,2-2.9c1-0.2,2,0.3,2.5,1.1l3.1-2.6
			c-0.1,0-0.2,0.1-0.3,0.1c-1.3,0.2-2.6-0.7-2.9-2c-0.2-1.3,0.7-2.6,2-2.9c1.3-0.2,2.6,0.7,2.9,2c0.1,0.5,0,1.1-0.2,1.5l1-0.9
			c-0.1-0.2-0.2-0.5-0.3-0.7c-0.2-1.3,0.7-2.6,2-2.9c0.7-0.1,1.4,0.1,1.9,0.5l2.4-2c-0.9-0.2-1.7-1-1.9-2c-0.2-1.3,0.7-2.6,2-2.9
			c1.3-0.2,2.6,0.7,2.9,2c0,0.1,0,0.2,0,0.3l0.5-0.4c-0.2-1.3,0.7-2.6,2-2.8c0.4-0.1,0.8,0,1.2,0.1l2.3-2c-0.6-0.4-1-0.9-1.1-1.6
			c-0.2-1.3,0.7-2.6,2-2.9c1.2-0.2,2.3,0.4,2.7,1.5l0.8-0.7c0.3-0.9,1-1.6,1.9-1.8h0.1l2.8-2.4c-0.3-0.3-0.4-0.7-0.5-1.1
			c-0.2-1.3,0.7-2.6,2-2.9c0.9-0.2,1.7,0.2,2.3,0.8l1.7-1.4c0,0,0.3-0.3,0.6-0.8c-1.1-0.1-2-0.9-2.2-2c-0.2-1.3,0.7-2.6,2-2.9
			c0.5-0.1,1,0,1.4,0.2c-0.1-0.4-0.3-0.7-0.5-1.1c-0.3,0.2-0.6,0.3-1,0.4C501,204.2,499.7,203.3,499.5,201.9z M478.8,197.4
			c1.3-0.2,2.6,0.7,2.9,2c0.2,1.3-0.7,2.6-2,2.9c-1.3,0.2-2.6-0.7-2.9-2C476.5,199,477.4,197.7,478.8,197.4z M468.9,204.8
			c1.3-0.2,2.6,0.7,2.9,2c0.2,1.3-0.7,2.6-2,2.9c-1.3,0.2-2.6-0.7-2.9-2S467.5,205,468.9,204.8z M480.4,174.7c1.3-0.2,2.6,0.7,2.9,2
			c0.2,1.3-0.7,2.6-2,2.9c-1.3,0.2-2.6-0.7-2.9-2C478.1,176.3,479,175,480.4,174.7z M475,175.7c1.3-0.2,2.6,0.7,2.9,2
			c0.2,1.3-0.7,2.6-2,2.9c-1.3,0.2-2.6-0.7-2.9-2C472.7,177.2,473.6,175.9,475,175.7z M470.5,182.1c1.3-0.2,2.6,0.7,2.9,2
			c0.2,1.3-0.7,2.6-2,2.9c-1.3,0.2-2.6-0.7-2.9-2C468.2,183.6,469.1,182.3,470.5,182.1z M465,183.1c1.3-0.2,2.6,0.7,2.9,2
			c0.2,1.3-0.7,2.6-2,2.9s-2.6-0.7-2.9-2C462.8,184.6,463.7,183.3,465,183.1z M460.6,189.4c1.3-0.2,2.6,0.7,2.9,2
			c0.2,1.3-0.7,2.6-2,2.9c-1.3,0.2-2.6-0.7-2.9-2S459.2,189.7,460.6,189.4z M418.6,269.1c-1.3,0.2-2.6-0.7-2.9-2
			c-0.2-1.3,0.7-2.6,2-2.9c1.3-0.2,2.6,0.7,2.9,2C420.9,267.6,420,268.9,418.6,269.1z M417.7,263.7c-1.3,0.2-2.6-0.7-2.9-2
			c-0.2-1.3,0.7-2.6,2-2.9c1.3-0.2,2.6,0.7,2.9,2C419.9,262.1,419,263.4,417.7,263.7z M416.7,258.2c-1.3,0.2-2.6-0.7-2.9-2
			c-0.2-1.3,0.7-2.6,2-2.9c1.3-0.2,2.6,0.7,2.9,2C419,256.7,418.1,258,416.7,258.2z M415.7,252.8c-1.3,0.2-2.6-0.7-2.9-2
			c-0.2-1.3,0.7-2.6,2-2.9c1.3-0.2,2.6,0.7,2.9,2C418,251.3,417.1,252.6,415.7,252.8z M414.8,247.4c-1.3,0.2-2.6-0.7-2.9-2
			c-0.2-1.3,0.7-2.6,2-2.9s2.6,0.7,2.9,2C417,245.8,416.1,247.1,414.8,247.4z M413.8,241.9c-1.3,0.2-2.6-0.7-2.9-2
			c-0.2-1.3,0.7-2.6,2-2.9c1.3-0.2,2.6,0.7,2.9,2C416.1,240.4,415.2,241.7,413.8,241.9z M425,273.6c-1.3,0.2-2.6-0.7-2.9-2
			c-0.2-1.3,0.7-2.6,2-2.9c1.3-0.2,2.6,0.7,2.9,2C427.3,272,426.4,273.3,425,273.6z M424.1,268.1c-1.3,0.2-2.6-0.7-2.9-2
			c-0.2-1.3,0.7-2.6,2-2.9c1.3-0.2,2.6,0.7,2.9,2C426.3,266.6,425.4,267.9,424.1,268.1z M423.1,262.7c-1.3,0.2-2.6-0.7-2.9-2
			s0.7-2.6,2-2.9c1.3-0.2,2.6,0.7,2.9,2C425.3,261.2,424.4,262.5,423.1,262.7z M422.1,257.3c-1.3,0.2-2.6-0.7-2.9-2
			c-0.2-1.3,0.7-2.6,2-2.9c1.3-0.2,2.6,0.7,2.9,2S423.5,257,422.1,257.3z M421.2,251.8c-1.3,0.2-2.6-0.7-2.9-2
			c-0.2-1.3,0.7-2.6,2-2.9c1.3-0.2,2.6,0.7,2.9,2C423.4,250.3,422.5,251.6,421.2,251.8z M420.2,246.4c-1.3,0.2-2.6-0.7-2.9-2
			c-0.2-1.3,0.7-2.6,2-2.9c1.3-0.2,2.6,0.7,2.9,2C422.5,244.9,421.6,246.2,420.2,246.4z M419.3,241c-1.3,0.2-2.6-0.7-2.9-2
			c-0.2-1.3,0.7-2.6,2-2.9c1.3-0.2,2.6,0.7,2.9,2C421.5,239.5,420.6,240.7,419.3,241z M418.3,235.5c-1.3,0.2-2.6-0.7-2.9-2
			c-0.2-1.3,0.7-2.6,2-2.9c1.3-0.2,2.6,0.7,2.9,2S419.7,235.3,418.3,235.5z M417.3,230.1c-1.3,0.2-2.6-0.7-2.9-2
			c-0.2-1.3,0.7-2.6,2-2.9c1.3-0.2,2.6,0.7,2.9,2C419.6,228.6,418.7,229.9,417.3,230.1z M431.4,278c-1.3,0.2-2.6-0.7-2.9-2
			c-0.2-1.3,0.7-2.6,2-2.9c1.3-0.2,2.6,0.7,2.9,2C433.6,276.5,432.7,277.8,431.4,278z M430.4,272.6c-1.3,0.2-2.6-0.7-2.9-2
			c-0.2-1.3,0.7-2.6,2-2.9c1.3-0.2,2.6,0.7,2.9,2S431.8,272.4,430.4,272.6z M429.5,267.2c-1.3,0.2-2.6-0.7-2.9-2
			c-0.2-1.3,0.7-2.6,2-2.9c1.3-0.2,2.6,0.7,2.9,2C431.7,265.7,430.8,266.9,429.5,267.2z M428.5,261.7c-1.3,0.2-2.6-0.7-2.9-2
			c-0.2-1.3,0.7-2.6,2-2.9c1.3-0.2,2.6,0.7,2.9,2C430.8,260.2,429.9,261.5,428.5,261.7z M427.6,256.3c-1.3,0.2-2.6-0.7-2.9-2
			c-0.2-1.3,0.7-2.6,2-2.9c1.3-0.2,2.6,0.7,2.9,2C429.8,254.8,428.9,256.1,427.6,256.3z M426.6,250.9c-1.3,0.2-2.6-0.7-2.9-2
			c-0.2-1.3,0.7-2.6,2-2.9c1.3-0.2,2.6,0.7,2.9,2C428.9,249.4,428,250.6,426.6,250.9z M425.6,245.5c-1.3,0.2-2.6-0.7-2.9-2
			c-0.2-1.3,0.7-2.6,2-2.9c1.3-0.2,2.6,0.7,2.9,2C427.9,243.9,427,245.2,425.6,245.5z M424.7,240c-1.3,0.2-2.6-0.7-2.9-2
			c-0.2-1.3,0.7-2.6,2-2.9c1.3-0.2,2.6,0.7,2.9,2C426.9,238.5,426,239.8,424.7,240z M423.7,234.6c-1.3,0.2-2.6-0.7-2.9-2
			s0.7-2.6,2-2.9c1.3-0.2,2.6,0.7,2.9,2C426,233.1,425.1,234.4,423.7,234.6z M422.8,229.2c-1.3,0.2-2.6-0.7-2.9-2
			c-0.2-1.3,0.7-2.6,2-2.9c1.3-0.2,2.6,0.7,2.9,2C425,227.6,424.1,228.9,422.8,229.2z M436.8,277.1c-1.3,0.2-2.6-0.7-2.9-2
			c-0.2-1.3,0.7-2.6,2-2.9c1.3-0.2,2.6,0.7,2.9,2C439.1,275.6,438.2,276.8,436.8,277.1z M435.9,271.7c-1.3,0.2-2.6-0.7-2.9-2
			c-0.2-1.3,0.7-2.6,2-2.9c1.3-0.2,2.6,0.7,2.9,2C438.1,270.1,437.2,271.4,435.9,271.7z M434.9,266.2c-1.3,0.2-2.6-0.7-2.9-2
			c-0.2-1.3,0.7-2.6,2-2.9c1.3-0.2,2.6,0.7,2.9,2C437.2,264.7,436.3,266,434.9,266.2z M434,260.8c-1.3,0.2-2.6-0.7-2.9-2
			c-0.2-1.3,0.7-2.6,2-2.9c1.3-0.2,2.6,0.7,2.9,2S435.3,260.6,434,260.8z M433,255.4c-1.3,0.2-2.6-0.7-2.9-2c-0.2-1.3,0.7-2.6,2-2.9
			c1.3-0.2,2.6,0.7,2.9,2C435.2,253.8,434.3,255.1,433,255.4z M432,249.9c-1.3,0.2-2.6-0.7-2.9-2c-0.2-1.3,0.7-2.6,2-2.9
			c1.3-0.2,2.6,0.7,2.9,2C434.3,248.4,433.4,249.7,432,249.9z M431.1,244.5c-1.3,0.2-2.6-0.7-2.9-2s0.7-2.6,2-2.9
			c1.3-0.2,2.6,0.7,2.9,2C433.3,243,432.4,244.3,431.1,244.5z M430.1,239.1c-1.3,0.2-2.6-0.7-2.9-2c-0.2-1.3,0.7-2.6,2-2.9
			c1.3-0.2,2.6,0.7,2.9,2C432.4,237.5,431.5,238.8,430.1,239.1z M429.2,233.6c-1.3,0.2-2.6-0.7-2.9-2c-0.2-1.3,0.7-2.6,2-2.9
			c1.3-0.2,2.6,0.7,2.9,2C431.4,232.1,430.5,233.4,429.2,233.6z M428.2,228.2c-1.3,0.2-2.6-0.7-2.9-2c-0.2-1.3,0.7-2.6,2-2.9
			c1.3-0.2,2.6,0.7,2.9,2C430.5,226.7,429.6,228,428.2,228.2z M427.2,222.8c-1.3,0.2-2.6-0.7-2.9-2c-0.2-1.3,0.7-2.6,2-2.9
			c1.3-0.2,2.6,0.7,2.9,2C429.5,221.2,428.6,222.5,427.2,222.8z M442.3,276.1c-1.3,0.2-2.6-0.7-2.9-2c-0.2-1.3,0.7-2.6,2-2.9
			c1.3-0.2,2.6,0.7,2.9,2C444.5,274.6,443.6,275.9,442.3,276.1z M441.3,270.7c-1.3,0.2-2.6-0.7-2.9-2c-0.2-1.3,0.7-2.6,2-2.9
			c1.3-0.2,2.6,0.7,2.9,2C443.6,269.2,442.7,270.5,441.3,270.7z M440.3,265.3c-1.3,0.2-2.6-0.7-2.9-2c-0.2-1.3,0.7-2.6,2-2.9
			c1.3-0.2,2.6,0.7,2.9,2C442.6,263.7,441.7,265,440.3,265.3z M439.4,259.8c-1.3,0.2-2.6-0.7-2.9-2c-0.2-1.3,0.7-2.6,2-2.9
			c1.3-0.2,2.6,0.7,2.9,2C441.6,258.3,440.7,259.6,439.4,259.8z M438.4,254.4c-1.3,0.2-2.6-0.7-2.9-2c-0.2-1.3,0.7-2.6,2-2.9
			c1.3-0.2,2.6,0.7,2.9,2C440.7,252.9,439.8,254.2,438.4,254.4z M437.5,249c-1.3,0.2-2.6-0.7-2.9-2c-0.2-1.3,0.7-2.6,2-2.9
			c1.3-0.2,2.6,0.7,2.9,2C439.7,247.4,438.8,248.7,437.5,249z M436.5,243.5c-1.3,0.2-2.6-0.7-2.9-2c-0.2-1.3,0.7-2.6,2-2.9
			c1.3-0.2,2.6,0.7,2.9,2C438.8,242,437.9,243.3,436.5,243.5z M435.6,238.1c-1.3,0.2-2.6-0.7-2.9-2c-0.2-1.3,0.7-2.6,2-2.9
			c1.3-0.2,2.6,0.7,2.9,2C437.8,236.6,436.9,237.9,435.6,238.1z M434.6,232.7c-1.3,0.2-2.6-0.7-2.9-2c-0.2-1.3,0.7-2.6,2-2.9
			c1.3-0.2,2.6,0.7,2.9,2C436.8,231.1,435.9,232.4,434.6,232.7z M433.6,227.2c-1.3,0.2-2.6-0.7-2.9-2c-0.2-1.3,0.7-2.6,2-2.9
			c1.3-0.2,2.6,0.7,2.9,2C435.9,225.7,435,227,433.6,227.2z M432.7,221.8c-1.3,0.2-2.6-0.7-2.9-2c-0.2-1.3,0.7-2.6,2-2.9
			c1.3-0.2,2.6,0.7,2.9,2C434.9,220.3,434,221.6,432.7,221.8z M431.7,216.4c-1.3,0.2-2.6-0.7-2.9-2s0.7-2.6,2-2.9
			c1.3-0.2,2.6,0.7,2.9,2C434,214.9,433.1,216.1,431.7,216.4z M448.7,280.6c-1.3,0.2-2.6-0.7-2.9-2c-0.2-1.3,0.7-2.6,2-2.9
			c1.3-0.2,2.6,0.7,2.9,2C450.9,279.1,450,280.4,448.7,280.6z M446.8,270.3c1.3-0.2,2.6,0.7,2.9,2c0.2,1.3-0.7,2.6-2,2.9
			c-1.3,0.2-2.6-0.7-2.9-2C444.6,271.8,445.5,270.5,446.8,270.3z M444.8,258.9c-1.3,0.2-2.6-0.7-2.9-2c-0.2-1.3,0.7-2.6,2-2.9
			c1.3-0.2,2.6,0.7,2.9,2C447.1,257.3,446.2,258.6,444.8,258.9z M443.9,253.4c-1.3,0.2-2.6-0.7-2.9-2c-0.2-1.3,0.7-2.6,2-2.9
			c1.3-0.2,2.6,0.7,2.9,2C446.1,251.9,445.2,253.2,443.9,253.4z M442.9,248c-1.3,0.2-2.6-0.7-2.9-2c-0.2-1.3,0.7-2.6,2-2.9
			c1.3-0.2,2.6,0.7,2.9,2C445.2,246.5,444.3,247.8,442.9,248z M441.9,242.6c-1.3,0.2-2.6-0.7-2.9-2c-0.2-1.3,0.7-2.6,2-2.9
			c1.3-0.2,2.6,0.7,2.9,2C444.2,241.1,443.3,242.3,441.9,242.6z M441,237.1c-1.3,0.2-2.6-0.7-2.9-2c-0.2-1.3,0.7-2.6,2-2.9
			c1.3-0.2,2.6,0.7,2.9,2C443.2,235.6,442.3,236.9,441,237.1z M440,231.7c-1.3,0.2-2.6-0.7-2.9-2s0.7-2.6,2-2.9
			c1.3-0.2,2.6,0.7,2.9,2C442.3,230.2,441.4,231.5,440,231.7z M439.1,226.3c-1.3,0.2-2.6-0.7-2.9-2s0.7-2.6,2-2.9
			c1.3-0.2,2.6,0.7,2.9,2C441.3,224.8,440.4,226,439.1,226.3z M438.1,220.9c-1.3,0.2-2.6-0.7-2.9-2c-0.2-1.3,0.7-2.6,2-2.9
			c1.3-0.2,2.6,0.7,2.9,2S439.5,220.6,438.1,220.9z M437.2,215.4c-1.3,0.2-2.6-0.7-2.9-2c-0.2-1.3,0.7-2.6,2-2.9
			c1.3-0.2,2.6,0.7,2.9,2C439.4,213.9,438.5,215.2,437.2,215.4z M449.3,252.5c-1.3,0.2-2.6-0.7-2.9-2c-0.2-1.3,0.7-2.6,2-2.9
			c1.3-0.2,2.6,0.7,2.9,2C451.5,251,450.6,252.2,449.3,252.5z M448.3,247.1c-1.3,0.2-2.6-0.7-2.9-2c-0.2-1.3,0.7-2.6,2-2.9
			c1.3-0.2,2.6,0.7,2.9,2C450.6,245.5,449.7,246.8,448.3,247.1z M447.4,241.6c-1.3,0.2-2.6-0.7-2.9-2c-0.2-1.3,0.7-2.6,2-2.9
			c1.3-0.2,2.6,0.7,2.9,2C449.6,240.1,448.7,241.4,447.4,241.6z M446.4,236.2c-1.3,0.2-2.6-0.7-2.9-2c-0.2-1.3,0.7-2.6,2-2.9
			c1.3-0.2,2.6,0.7,2.9,2C448.7,234.7,447.8,235.9,446.4,236.2z M445.5,230.8c-1.3,0.2-2.6-0.7-2.9-2s0.7-2.6,2-2.9s2.6,0.7,2.9,2
			C447.7,229.2,446.8,230.5,445.5,230.8z M444.5,225.3c-1.3,0.2-2.6-0.7-2.9-2c-0.2-1.3,0.7-2.6,2-2.9c1.3-0.2,2.6,0.7,2.9,2
			C446.8,223.8,445.9,225.1,444.5,225.3z M443.5,219.9c-1.3,0.2-2.6-0.7-2.9-2c-0.2-1.3,0.7-2.6,2-2.9c1.3-0.2,2.6,0.7,2.9,2
			C445.8,218.4,444.9,219.7,443.5,219.9z M442.6,214.5c-1.3,0.2-2.6-0.7-2.9-2c-0.2-1.3,0.7-2.6,2-2.9c1.3-0.2,2.6,0.7,2.9,2
			C444.8,212.9,443.9,214.2,442.6,214.5z M441.6,209c-1.3,0.2-2.6-0.7-2.9-2c-0.2-1.3,0.7-2.6,2-2.9s2.6,0.7,2.9,2
			C443.9,207.5,443,208.8,441.6,209z M453.8,246.1c-1.3,0.2-2.6-0.7-2.9-2c-0.2-1.3,0.7-2.6,2-2.9c1.3-0.2,2.6,0.7,2.9,2
			C456,244.6,455.1,245.9,453.8,246.1z M452.8,240.7c-1.3,0.2-2.6-0.7-2.9-2c-0.2-1.3,0.7-2.6,2-2.9c1.3-0.2,2.6,0.7,2.9,2
			S454.2,240.4,452.8,240.7z M451.8,235.2c-1.3,0.2-2.6-0.7-2.9-2c-0.2-1.3,0.7-2.6,2-2.9c1.3-0.2,2.6,0.7,2.9,2
			C454.1,233.7,453.2,235,451.8,235.2z M450.9,229.8c-1.3,0.2-2.6-0.7-2.9-2c-0.2-1.3,0.7-2.6,2-2.9c1.3-0.2,2.6,0.7,2.9,2
			C453.1,228.3,452.2,229.6,450.9,229.8z M449.9,224.4c-1.3,0.2-2.6-0.7-2.9-2c-0.2-1.3,0.7-2.6,2-2.9c1.3-0.2,2.6,0.7,2.9,2
			C452.2,222.8,451.3,224.1,449.9,224.4z M449,218.9c-1.3,0.2-2.6-0.7-2.9-2c-0.2-1.3,0.7-2.6,2-2.9c1.3-0.2,2.6,0.7,2.9,2
			C451.2,217.4,450.3,218.7,449,218.9z M448,213.5c-1.3,0.2-2.6-0.7-2.9-2s0.7-2.6,2-2.9c1.3-0.2,2.6,0.7,2.9,2
			C450.3,212,449.4,213.3,448,213.5z M447.1,208.1c-1.3,0.2-2.6-0.7-2.9-2c-0.2-1.3,0.7-2.6,2-2.9c1.3-0.2,2.6,0.7,2.9,2
			C449.3,206.5,448.4,207.8,447.1,208.1z M459.2,245.1c-1.3,0.2-2.6-0.7-2.9-2c-0.2-1.3,0.7-2.6,2-2.9c1.3-0.2,2.6,0.7,2.9,2
			C461.4,243.6,460.5,244.9,459.2,245.1z M458.2,239.7c-1.3,0.2-2.6-0.7-2.9-2c-0.2-1.3,0.7-2.6,2-2.9c1.3-0.2,2.6,0.7,2.9,2
			S459.6,239.5,458.2,239.7z M457.3,234.3c-1.3,0.2-2.6-0.7-2.9-2c-0.2-1.3,0.7-2.6,2-2.9c1.3-0.2,2.6,0.7,2.9,2
			C459.5,232.7,458.6,234,457.3,234.3z M456.3,228.8c-1.3,0.2-2.6-0.7-2.9-2c-0.2-1.3,0.7-2.6,2-2.9c1.3-0.2,2.6,0.7,2.9,2
			C458.6,227.3,457.7,228.6,456.3,228.8z M455.4,223.4c-1.3,0.2-2.6-0.7-2.9-2c-0.2-1.3,0.7-2.6,2-2.9c1.3-0.2,2.6,0.7,2.9,2
			C457.6,221.9,456.7,223.2,455.4,223.4z M454.4,218c-1.3,0.2-2.6-0.7-2.9-2c-0.2-1.3,0.7-2.6,2-2.9c1.3-0.2,2.6,0.7,2.9,2
			C456.7,216.5,455.8,217.7,454.4,218z M453.4,212.5c-1.3,0.2-2.6-0.7-2.9-2s0.7-2.6,2-2.9s2.6,0.7,2.9,2
			C455.7,211,454.8,212.3,453.4,212.5z M452.5,207.1c-1.3,0.2-2.6-0.7-2.9-2c-0.2-1.3,0.7-2.6,2-2.9c1.3-0.2,2.6,0.7,2.9,2
			C454.7,205.6,453.8,206.9,452.5,207.1z M451.5,201.7c-1.3,0.2-2.6-0.7-2.9-2c-0.2-1.3,0.7-2.6,2-2.9c1.3-0.2,2.6,0.7,2.9,2
			C453.8,200.2,452.9,201.4,451.5,201.7z M463.7,238.7c-1.3,0.2-2.6-0.7-2.9-2c-0.2-1.3,0.7-2.6,2-2.9c1.3-0.2,2.6,0.7,2.9,2
			C465.9,237.2,465,238.5,463.7,238.7z M462.7,233.3c-1.3,0.2-2.6-0.7-2.9-2c-0.2-1.3,0.7-2.6,2-2.9c1.3-0.2,2.6,0.7,2.9,2
			C465,231.8,464.1,233.1,462.7,233.3z M461.8,227.9c-1.3,0.2-2.6-0.7-2.9-2c-0.2-1.3,0.7-2.6,2-2.9c1.3-0.2,2.6,0.7,2.9,2
			C464,226.4,463.1,227.6,461.8,227.9z M460.8,222.4c-1.3,0.2-2.6-0.7-2.9-2c-0.2-1.3,0.7-2.6,2-2.9c1.3-0.2,2.6,0.7,2.9,2
			S462.1,222.2,460.8,222.4z M459.8,217c-1.3,0.2-2.6-0.7-2.9-2c-0.2-1.3,0.7-2.6,2-2.9s2.6,0.7,2.9,2
			C462.1,215.5,461.2,216.8,459.8,217z M468.1,232.4c-1.3,0.2-2.6-0.7-2.9-2c-0.2-1.3,0.7-2.6,2-2.9c1.3-0.2,2.6,0.7,2.9,2
			S469.5,232.1,468.1,232.4z M467.2,226.9c-1.3,0.2-2.6-0.7-2.9-2c-0.2-1.3,0.7-2.6,2-2.9c1.3-0.2,2.6,0.7,2.9,2
			C469.4,225.4,468.5,226.7,467.2,226.9z M466.2,221.5c-1.3,0.2-2.6-0.7-2.9-2c-0.2-1.3,0.7-2.6,2-2.9c1.3-0.2,2.6,0.7,2.9,2
			C468.5,220,467.6,221.3,466.2,221.5z M465.3,216.1c-1.3,0.2-2.6-0.7-2.9-2c-0.2-1.3,0.7-2.6,2-2.9c1.3-0.2,2.6,0.7,2.9,2
			C467.5,214.5,466.6,215.8,465.3,216.1z M473.6,231.4c-1.3,0.2-2.6-0.7-2.9-2c-0.2-1.3,0.7-2.6,2-2.9c1.3-0.2,2.6,0.7,2.9,2
			C475.8,229.9,474.9,231.2,473.6,231.4z M472.6,226c-1.3,0.2-2.6-0.7-2.9-2c-0.2-1.3,0.7-2.6,2-2.9c1.3-0.2,2.6,0.7,2.9,2
			S474,225.7,472.6,226z M471.7,220.5c-1.3,0.2-2.6-0.7-2.9-2c-0.2-1.3,0.7-2.6,2-2.9c1.3-0.2,2.6,0.7,2.9,2
			C473.9,219,473,220.3,471.7,220.5z M478,225c-1.3,0.2-2.6-0.7-2.9-2c-0.2-1.3,0.7-2.6,2-2.9c1.3-0.2,2.6,0.7,2.9,2
			C480.3,223.5,479.4,224.8,478,225z M483.5,224c-1.3,0.2-2.6-0.7-2.9-2c-0.2-1.3,0.7-2.6,2-2.9c1.3-0.2,2.6,0.7,2.9,2
			C485.7,222.5,484.8,223.8,483.5,224z M488,217.7c-1.3,0.2-2.6-0.7-2.9-2c-0.2-1.3,0.7-2.6,2-2.9c1.3-0.2,2.6,0.7,2.9,2
			C490.2,216.1,489.3,217.4,488,217.7z M493.4,216.7c-1.3,0.2-2.6-0.7-2.9-2s0.7-2.6,2-2.9c1.3-0.2,2.6,0.7,2.9,2
			C495.6,215.2,494.7,216.5,493.4,216.7z M497.9,210.3c-1.3,0.2-2.6-0.7-2.9-2c-0.2-1.3,0.7-2.6,2-2.9c1.3-0.2,2.6,0.7,2.9,2
			C500.1,208.8,499.2,210.1,497.9,210.3z"/>
	</g>
</g>
<g>
	<path d="M655,69.1c-0.5,0.6-1.1,2.4-2,2.5c-2.2,0.3-4.4-0.1-6.7-0.2c0.1-0.7,0.2-1.4,0.4-2c0-0.1,0.6-0.1,1-0.2
		c4.3-0.4,4.3-0.4,4.3-4.8c0-3-0.1-5.9,0-8.9c0.1-1.9-0.7-2.3-2.4-2.4c-1.3,0-2.5-0.8-3.8-1.2c0.7-2.2,2.6-1.3,4-1.4
		c4.5-0.1,4.5,0,5.1,4.4c1.3-0.6,2.6-0.9,3.5-1.6c3.2-2.5,6.5-4.7,10.7-3.8c2.4,0.5,4.5,2.1,6.9,2.6c3,0.6,7.1,1.8,9.1,0.4
		c2.5-1.7,4.7-1.9,7.2-1.9c0.9,0,1.8,0.8,2.7,1.3c-0.9,0.4-1.8,1-2.8,1.1c-1.3,0.2-2.6,0-4.1,0c0,5.3,0,10.4,0,15.9
		c1.8,0,3.6-0.1,5.3,0.1c0.6,0.1,1.1,0.9,1.6,1.3c-0.5,0.4-1.1,1.1-1.5,1c-2.8-0.3-6,1.4-8.1-1.9c-0.1-0.2-1.7,0.3-2.3,0.8
		c-3.2,2.9-6.2,5.8-9.4,8.8c-2.6,2.4-4,2.4-6.8,0.3c-1-0.7-2-1.4-3.2-1.7c-3.5-0.9-4.9-4.1-7.3-6.3C655.5,70.8,655.2,69.6,655,69.1z
		 M680.7,55.9c-0.5,6-4.9,8.3-9.4,4.3c-0.3-0.2-0.6-0.5-0.9-0.6c-0.6-0.1-1.4-0.2-1.8,0.1c-3.5,3.1-7,6.2-10.7,9.6
		c1.3,0.9,3.1,1.5,3.1,2.1c-0.1,2.9,1.5,2.6,3.5,2.1c0.4,2,1.3,3.2,3.4,2.1c1.5,3.2,1.9,3.3,4.4,0.9c1.5-1.4,2.9-2.7,4.4-4.1
		c2.6-2.3,5.2-4.6,8.2-7.2c0-2.5,0-5.9,0-9.3C683.4,55.9,682,55.9,680.7,55.9z M655.3,64.7c2,1.3,3.3,0.5,4.8-0.9
		c2-2,4.3-3.8,6.4-5.8c1.9-1.9,3.8-2.3,5.9-0.5c0.8,0.7,1.7,1.4,2.6,1.6c0.7,0.1,1.7-0.4,2.4-0.9c0.3-0.3,0.4-1.4,0.1-1.8
		c-4-5.3-11.4-5.9-16.7-1.6c-1.5,1.2-3.3,2.2-5.5,3.5C655.3,59.9,655.3,62.3,655.3,64.7z"/>
	<path class="st0" d="M686.3,14.2h-31.9c-8.3,0-16,4.4-20.1,11.6l-16,27.6c-4.2,7.2-4.2,16.1,0,23.3l16,27.6
		c4.2,7.2,11.8,11.6,20.1,11.6h31.9c8.3,0,16-4.4,20.1-11.6l16-27.6c4.2-7.2,4.2-16.1,0-23.3l-16-27.6
		C702.3,18.6,694.7,14.2,686.3,14.2z"/>
</g>
<g>
	<path d="M758.4,223.6c-4.2-4.2-9-9.1-13.9-14c-1.9-1.9-3.8-3.7-5.6-5.6c-5.5-5.8-5.7-13.7-0.6-19.1c5.2-5.4,13.3-5.5,19.3-0.1
		c0.4,0.4,0.8,0.7,1.4,1.3c0.8-0.7,1.5-1.4,2.3-2c5.3-4.6,13.1-4.4,18.1,0.5c4.9,4.7,5.9,12.8,1.2,17.8
		C773.6,209.6,766,216.3,758.4,223.6z M759,219.9c6.2-6.1,12.5-12.1,18.5-18.2c4.3-4.3,4.3-10.9,0.2-15c-4.1-4.2-10.4-4.4-15-0.3
		c-1.2,1.1-2.4,2.3-3.7,3.5c-1.5-1.4-2.9-2.8-4.4-4c-4.3-3.5-10.4-3.1-14.2,0.7c-4,4-4.5,10.3-0.6,14.4
		C746,207.4,752.6,213.6,759,219.9z"/>
	<path class="st0" d="M775.1,151.2h-32c-8.3,0-16,4.4-20.1,11.6l-16,27.6c-4.2,7.2-4.2,16.1,0,23.3l16,27.6
		c4.2,7.2,11.8,11.6,20.1,11.6h32c8.3,0,16-4.4,20.1-11.6l16-27.6c4.2-7.2,4.2-16.1,0-23.3l-16-27.6
		C791.1,155.7,783.4,151.2,775.1,151.2z"/>
</g>
<g>
	<g>
		<path d="M254.1,341.5c-0.8,9.7-1.7,19.1-2.5,28.5c-0.2,2.8-0.5,5.6-0.7,8.3c-0.1,1.9-1,2.8-3.1,2.8c-10.2-0.1-20.3-0.1-30.5,0
			c-2,0-2.9-0.8-3.2-2.7c-1.1-7.3-2.2-14.6-3.3-21.8c-0.1-0.7-0.3-1.7,0.1-2c2.8-2.7,1.5-6.1,1.6-9.3c0.2-3.4,0.8-4.2,4.2-4.3
			c2,0,4,0,6,0c1.8,0,3.7,0.4,5.2-1.5c0.5-0.6,2.1-0.4,3.1-0.5c2.9-0.1,5.8,0.1,8.7,0c2.7-0.1,3.8,1.2,3.8,3.8c0,3.3,0,6.5,0,9.9
			c0.8,0.1,1.3,0.2,1.8,0.2c4.8,0.2,4.8,0.2,5.1-4.7c0.1-2.4,0.4-4.8,0.6-7.1c0.1-1.8,1-2.8,2.8-2.8c1.5,0,3-0.1,4.5,0.1
			c0.6,0.1,1.1,0.9,1.6,1.4c-0.5,0.5-1,1.3-1.6,1.4C257.1,341.5,255.8,341.5,254.1,341.5z M249.9,356.3c-12.2,0-23.9,0-35.9,0
			c1,6.6,2.1,12.8,2.8,19.1c0.3,2.2,1.1,2.8,3.2,2.8c8.5-0.1,16.9,0,25.4-0.1c0.8,0,1.7-0.1,2.6-0.2
			C248.7,370.6,249.3,363.5,249.9,356.3z M229.9,352.8c3.6,0,7,0,10.7,0c0-3.6,0-7,0-10.6c-3.6,0-7.1,0-10.7,0
			C229.9,345.9,229.9,349.3,229.9,352.8z M216,344.2c0,3.1,0,5.8,0,8.6c3.6,0,6.9,0,10.4,0c0-3,0-5.8,0-8.8c-3,0-5.8,0-8.6,0
			C217.2,344.1,216.7,344.2,216,344.2z"/>
		<path d="M223.1,393.1c-2.4,0-4.3-1.8-4.4-4.3c-0.1-2.5,1.9-4.6,4.4-4.6c2.4,0,4.6,2.2,4.5,4.6S225.5,393.1,223.1,393.1z"/>
		<path d="M242,393.1c-2.5,0-4.6-2.1-4.5-4.6c0.1-2.3,2.2-4.3,4.5-4.3c2.4,0,4.5,2.1,4.4,4.6C246.3,391.3,244.4,393.1,242,393.1z"/>
	</g>
	<path class="st0" d="M251.4,314.8h-31.9c-8.3,0-16,4.4-20.1,11.6l-16,27.6c-4.2,7.2-4.2,16.1,0,23.3l16,27.6
		c4.2,7.2,11.8,11.6,20.1,11.6h31.9c8.3,0,16-4.4,20.1-11.6l16-27.6c4.2-7.2,4.2-16.1,0-23.3l-16-27.6
		C267.4,319.2,259.7,314.8,251.4,314.8z"/>
</g>
<g>
	<path d="M307.8,486.6c0.6-4.9,0.8-5,5.2-5.4c6.4-0.6,12.8-1.4,19.2-2.1c4.1-0.5,4.7,0,4.7,4c0,14.8,0,29.6,0,44.4
		c0,3.5-0.3,3.8-3.7,3.8c-13.9,0-27.9,0-41.8,0c-2.6,0-3.5-0.9-3.5-3.5c0.1-12.6,0.1-25.2,0-37.9c0-2.7,1.1-3.5,3.6-3.4
		C296.9,486.6,302.3,486.6,307.8,486.6z M333.9,528.3c0-15.6,0-31,0-46.4c-7.1,0.7-14,1.4-20.9,2.2c-0.8,0.1-2,1-2.1,1.6
		c-0.2,3.6-0.1,7.1-0.1,11c2.1,0,3.9,0,5.7,0c4.4,0,4.6,0.2,4.6,4.4c0,8.1,0,16.1,0,24.2c0,1,0.1,2,0.1,3.1
		C325.6,528.3,329.7,528.3,333.9,528.3z M291,489.5c0,13.1,0,25.9,0,38.7c3.2,0,6.2,0,9.4,0c0-1.3,0-2.3,0-3.3c0-7.4,0-14.8,0-22.2
		c0-5.9,0-5.9,6-6.1c0.4,0,0.9-0.1,1.4-0.2c0-2.4,0-4.6,0-6.9C302.2,489.5,296.7,489.5,291,489.5z M318.1,528.3c0-9.7,0-19.1,0-28.6
		c-5,0-9.8,0-14.6,0c0,9.7,0,19.1,0,28.5c1.5,0,2.8,0,3.4,0c2.6-1.7-1.3-5.5,3-6.1c5.7-0.8,2.3,4.3,4,6.2
		C315.2,528.3,316.5,528.3,318.1,528.3z"/>
	<path class="st0" d="M328.4,454.2h-31.9c-8.3,0-16,4.4-20.1,11.6l-16,27.6c-4.2,7.2-4.2,16.1,0,23.3l16,27.6
		c4.2,7.2,11.8,11.6,20.1,11.6h31.9c8.3,0,16-4.4,20.1-11.6l16-27.6c4.2-7.2,4.2-16.1,0-23.3l-16-27.6
		C344.4,458.6,336.8,454.2,328.4,454.2z"/>
</g>
<path d="M247.1,205.2c2.3,0.9,6.1,2,6,2.6c-0.5,3.8-3.9,2.2-6.1,2.2c-2.2,0-5.6,1.6-6-2.3C240.9,207.2,244.8,206.2,247.1,205.2z"/>
<g>
	<path d="M296.2,86.9c0-1.9,0-3.5,0-5c0-7.9,0-15.8,0-23.7c0-3.8,0.8-4.6,4.5-4.7c9.4-0.1,8.5,0.1,8.5,8.3c0,7.2,0,14.5,0,21.7
		c0,1,0,2,0,3.1c2.5,0,4.6,0,7.2,0c0-3.7,0-7.2,0-10.7c0-2.4,0-4.8,0-7.2c0-2.2,1.1-3.4,3.4-3.4c1.9,0,3.9,0.1,5.8,0
		c2.6-0.1,3.7,1.2,3.7,3.6c0,4.9,0,9.7,0,14.6c0,1,0.1,2,0.2,3.3c1.7,0,3.1-0.1,4.5,0c0.5,0,0.9,0.7,1.4,1c-0.4,0.5-0.7,1.2-1.3,1.5
		c-0.5,0.3-1.3,0.1-1.9,0.1c-14,0-28.1,0-42.1,0c-3.3,0-3.8-0.5-3.8-3.8c0-14.1,0-28.2,0-42.4c0-0.7,0-1.5,0.3-2.1
		c0.2-0.4,0.8-0.8,1.2-0.8c0.4,0,1,0.6,1.1,1c0.2,0.8,0.1,1.6,0.1,2.5c0,13.2,0.1,26.4-0.1,39.6c0,2.6,0.7,3.7,3.3,3.3
		C293.3,86.7,294.5,86.9,296.2,86.9z M299.3,86.7c2.5,0,4.7,0,7,0c0-10.1,0-20,0-30.1c-2.4,0-4.6,0-7,0
		C299.3,66.7,299.3,76.6,299.3,86.7z M319.2,68.4c0,6.2,0,12.2,0,18.3c2.4,0,4.6,0,7,0c0-6.2,0-12.2,0-18.3
		C323.9,68.4,321.7,68.4,319.2,68.4z"/>
	<path class="st0" d="M326.7,14.2h-31.9c-8.3,0-16,4.4-20.1,11.6l-16,27.6c-4.2,7.2-4.2,16.1,0,23.3l16,27.6
		c4.2,7.2,11.8,11.6,20.1,11.6h31.9c8.3,0,16-4.4,20.1-11.6l16-27.6c4.2-7.2,4.2-16.1,0-23.3l-16-27.6
		C342.7,18.6,335,14.2,326.7,14.2z"/>
</g>
<g>
	<path d="M257.3,196.1c0.1,0.8,0.5,1.9,0.5,3c0.1,4.4,0,8.8,0.1,13.2c0.1,2.3-0.7,3.6-2.8,3.6c-0.6,2.4-0.9,4.9-2,6.9
		c-0.4,0.8-2.7,0.7-4.2,0.8c-3.6,0-3.6,0-4.7-7.5c-6.1,0-12.3,0-18.2,0c-0.6,2.4-0.8,5-2,6.7c-0.7,1-3.3,0.8-5,0.8
		c-2.9-0.1-3.2-0.8-3.8-7.3c-3-0.2-3.4-2.1-3.2-4.7c0.3-5,0.4-10.1,0.5-15.1c0-0.3-0.3-0.7-0.4-1c-0.3-0.6-0.7-1.1-1-1.7
		c0.6-0.4,1.3-1,1.8-1c1.9,0.2,2.6-0.8,3.1-2.4c0.7-2.1,1.7-4.2,2.4-6.3s2.2-3.2,4.4-3.2c8.3,0,16.5,0,24.8,0c2.1,0,3.5,1,4.3,3
		c0.9,2.4,1.7,4.8,2.8,7c0.4,0.8,1.5,1.2,2.4,1.7c1,0.5,2,0.9,3.1,1.3C259.1,194.6,258.3,195.3,257.3,196.1z M214.6,212.7
		c13.7,0,27,0,40.2,0c0-4.9,0-9.5,0-14c-0.3-0.2-0.3-0.3-0.4-0.3c-12.7-0.1-25.5-0.1-38.2-0.1c-0.5,0-1.5,0.9-1.5,1.4
		C214.6,204,214.6,208.3,214.6,212.7z M216.9,195.3c12.2,0,24,0,36.1,0c-1.4-3.6-2.5-7-4-10.2c-0.3-0.7-1.6-1.3-2.4-1.3
		c-7.8-0.1-15.6-0.1-23.4,0c-0.8,0-2,0.5-2.3,1C219.6,188.2,218.3,191.7,216.9,195.3z M247.4,216.4c0,1.4,0,2.8,0,4.1
		c1.5,0,2.8,0,4,0c0-1.5,0-2.7,0-4.1C250,216.4,248.9,216.4,247.4,216.4z M218.2,216.4c-0.5,4.6-0.1,4.9,4.1,3.9c0-1.2,0-2.5,0-3.9
		C220.9,216.4,219.6,216.4,218.2,216.4z"/>
	<path d="M217.8,206.1c1.3,0,2.7-0.2,4,0.1c0.8,0.2,1.5,1.1,2.2,1.7c-0.7,0.7-1.3,2-2,2.1c-2.8,0.3-5.7,0.3-8.4,0
		c-0.8-0.1-1.5-1.5-2.3-2.2c0.8-0.6,1.5-1.4,2.4-1.6C215.1,205.9,216.5,206.1,217.8,206.1z"/>
	<path class="st0" d="M251.4,151.3h-31.9c-8.3,0-16,4.4-20.1,11.6l-16,27.6c-4.2,7.2-4.2,16.1,0,23.3l16,27.6
		c4.2,7.2,11.8,11.6,20.1,11.6h31.9c8.3,0,16-4.4,20.1-11.6l16-27.6c4.2-7.2,4.2-16.1,0-23.3l-16-27.6
		C267.4,155.7,259.7,151.3,251.4,151.3z"/>
</g>
<g>
	<path d="M779,356.7c0,3-0.1,5.9,0.1,8.8c0.1,1,0.9,1.9,1.4,2.8c1.8,3.2,1,7.2-2.1,9.4c-3.1,2.2-7,1.8-9.5-1.1
		c-2.3-2.7-2.3-6.8,0.2-9.3c0.6-0.6,1.7-0.6,2.6-0.9c-0.2,0.8-0.1,1.9-0.5,2.5c-1.7,2.5-1.7,4.6,0.1,6.3c1.6,1.5,4.3,1.5,5.9-0.1
		c1.8-1.7,1.8-3.9,0.2-6.3c-0.6-0.9-1-2.1-1.1-3.2c-0.1-2.9,0-5.7,0-9c-9.5,0.6-18.8-1.2-28.1,1.4c0,5.2,0,10.4,0,16
		c2.5,0,5,0.1,7.4,0c2.2-0.1,3.1,0.9,3.1,3c0,2.6,0,5.2,0,7.8c0,1.9-0.8,2.8-2.8,2.8c-6.3-0.1-12.6,0-18.9,0c-1.7,0-2.6-0.7-2.6-2.4
		c0-3,0-6,0-8.9c0-1.7,0.8-2.4,2.5-2.4c2.6,0.1,5.2,0,8.1,0c0-5.4,0-10.7,0-16.1c-0.7-0.1-1.6,0.1-2.1-0.2c-0.9-0.6-2.2-1.5-2.3-2.3
		c-0.2-3.8-0.1-7.6-0.1-11.4c0-2,1.4-2.2,3-2.4c4.2-0.4,8,0.8,12,1.9c7.9,2.1,16,3.5,24,5.2c4,0.9,4.2,1.1,3.9,5.3
		C783.3,356.2,783.3,356.2,779,356.7z M755.8,376.6c-6.2,0-12.3,0-18.4,0c0,2.8,0,5.4,0,8c0.5,0.1,0.7,0.2,1,0.2c3.7,0,7.4,0,11,0
		C757,384.9,757.1,384.7,755.8,376.6z M780.5,353.7c0.2-0.3,0.4-0.6,0.6-0.9c-0.7-0.6-1.4-1.4-2.2-1.6c-3.3-0.8-6.7-1.5-10-2.2
		c-5.3-1.1-10.6-2.2-16.1-3.4c0,2.9,0,5.4,0,8C762.2,353.7,771.3,353.7,780.5,353.7z M743.3,354.6c2.1,0,4.2,0,6.3,0
		c0-3.5,0-6.7,0-10.1c-2.2,0-4.2,0-6.3,0C743.3,347.9,743.3,351.1,743.3,354.6z"/>
	<path class="st0" d="M774.9,313.5H743c-8.3,0-16,4.4-20.1,11.6l-16,27.6c-4.2,7.2-4.2,16.1,0,23.3l16,27.6
		c4.2,7.2,11.8,11.6,20.1,11.6h31.9c8.3,0,16-4.4,20.1-11.6l16-27.6c4.2-7.2,4.2-16.1,0-23.3l-16-27.6
		C790.9,317.9,783.2,313.5,774.9,313.5z"/>
</g>
<g>
	<path d="M684.7,521.9c1.7,1.6,3.5,3,5,4.6c0.7,0.8,0.8,2.1,1.2,3.2c-1.1-0.4-2.4-0.7-3.2-1.4c-1.7-1.5-3.1-3.2-4-4.2
		c-4.4,1.6-8,3.4-11.8,4.2c-5.6,1.2-10.4-1-14.3-5.2c-6.3-6.8-9.4-15.2-12.1-23.8c-1.3-4.2-2.3-8.5-3.3-12.7c-0.9-4,1.4-6.9,5.3-6.1
		c12.2,2.5,24.3,5.6,34.5,13.2c9.8,7.3,11,16.4,4,26.3C685.6,520.5,685.4,520.9,684.7,521.9z M675.1,512.1c0.2-0.1,0.4-0.3,0.7-0.4
		c0.1-0.7,0-1.5,0.2-2.2c0.4-1.4,0.9-2.7,1.4-4.1c2.3,0.9,1.5,2.9,1.3,4.3c-0.6,4.1,0.3,7.4,4.1,9.4c6.6-6.5,6.1-16.3-1.2-22
		c-10-7.8-21.9-11-34-13.8c-2.5-0.6-3.5,0.5-2.8,2.9c2.6,8.4,5,17,8.4,25.2c1.8,4.2,5,8.2,8.4,11.4c5.1,4.8,14.7,3.7,18.9-1.7
		c-1-1-2.1-1.8-3-2.9c-3.3-3.9-6.7-7.4-12.4-4.1c-0.1,0-0.2,0.1-0.3,0.1c-0.6-0.3-1.2-0.6-1.8-1c0.4-0.6,0.6-1.4,1.1-1.6
		c1.5-0.6,3.1-1,4.7-1.5c0.2-0.3,0.5-0.7,0.7-1c-1.2-0.9-2.6-1.5-3.6-2.6c-0.7-0.8-0.8-2.1-1.2-3.2c1,0.4,2.3,0.5,3,1.2
		C670.3,506.9,672.7,509.5,675.1,512.1z"/>
	<path class="st0" d="M682.4,454.2h-31.9c-8.3,0-16,4.4-20.1,11.6l-16,27.6c-4.2,7.2-4.2,16.1,0,23.3l16,27.6
		c4.2,7.2,11.8,11.6,20.1,11.6h31.9c8.3,0,16-4.4,20.1-11.6l16-27.6c4.2-7.2,4.2-16.1,0-23.3l-16-27.6
		C698.4,458.6,690.7,454.2,682.4,454.2z"/>
</g>
<rect x="76.5" y="40.9" class="st3" width="161" height="49"/>
<text transform="matrix(1 0 0 1 123.805 55.7627)" class="st4 st5">SERVIOS </text>
<text transform="matrix(1 0 0 1 90.105 80.9627)" class="st4 st5">FINANCEIROS</text>
<rect y="177.7" class="st3" width="161" height="49"/>
<text transform="matrix(1 0 0 1 12.4266 192.5968)" class="st4 st5">DISTRIBUIO</text>
<text transform="matrix(1 0 0 1 27.0266 217.7968)" class="st4 st5">&amp; LOGSTICA</text>
<rect y="341.2" class="st3" width="161" height="49"/>
<text transform="matrix(1 0 0 1 57.3993 356.1213)" class="st4 st5">ATACADO </text>
<text transform="matrix(1 0 0 1 61.3993 381.3213)" class="st4 st5">&amp; VAREJO</text>
<rect x="76.9" y="479.3" class="st3" width="161" height="49"/>
<text transform="matrix(1 0 0 1 132.1984 496.259)" class="st4 st5">GOVERNO</text>
<text transform="matrix(1 0 0 1 154.9984 521.459)" class="st4 st5">&amp; ORGS</text>
<rect x="747" y="40.6" class="st3" width="161" height="49"/>
<text transform="matrix(1 0 0 1 746.9528 55.527)" class="st4 st5">CONSULTORIA </text>
<text transform="matrix(1 0 0 1 746.9528 80.727)" class="st4 st5">&amp; SERVIOS</text>
<rect x="834.5" y="177.5" class="st3" width="161" height="49"/>
<text transform="matrix(1 0 0 1 834.4528 192.3612)" class="st4 st5">SADE</text>
<text transform="matrix(1 0 0 1 834.4528 217.5612)" class="st4 st5">&amp; CUIDADOS</text>
<rect x="834.5" y="341" class="st3" width="161" height="49"/>
<text transform="matrix(1 0 0 1 834.4528 355.8857)" class="st4 st5">MANUFATURA</text>
<text transform="matrix(1 0 0 1 834.4528 381.0857)" class="st4 st5">&amp; INDSTRIA</text>
<rect x="741.3" y="479.1" class="st3" width="161" height="49"/>
<text transform="matrix(1 0 0 1 741.2939 494.0234)" class="st4 st5">AGRONEGCIO</text>
<text transform="matrix(1 0 0 1 741.2939 519.2234)" class="st4 st5">&amp; CAMPO</text>
</svg>
